<?xml version="1.0" encoding="utf-8"?>
<!-- Generator: Adobe Illustrator 23.1.1, SVG Export Plug-In . SVG Version: 6.00 Build 0)  -->
<svg version="1.1" id="Layer_1" xmlns="http://www.w3.org/2000/svg" xmlns:xlink="http://www.w3.org/1999/xlink" x="0px" y="0px"
	 viewBox="0 0 748.3 392.3" style="enable-background:new 0 0 748.3 392.3;" xml:space="preserve">
<style type="text/css">
	.st0{fill:#EDEDED;}
	.st1{fill:#3BEDBF;}
</style>
<path class="st0" d="M603.3,184.2c-4.7-4.6-9.6-8.4-14.9-10.5c4.6-5.3,7.7-12.5,7.7-20.2c0-17-14-31-31-31s-31,14-31,31
	c0,7.8,2.7,14.6,7.4,20.2c-5.6,2.7-10.5,6.1-15.2,10.8c-10.5,10.5-16.1,23.6-16.1,38.7c0,15.1,5.3,27.9,16.1,38.7
	c10.5,10.5,23.5,16.1,38.7,16.1s27.9-5.3,38.7-16.1c10.5-10.5,16.1-23.5,16.3-38.6C619.7,208.1,613.8,194.7,603.3,184.2z
	 M564.7,140.8c7,0,12.7,5.7,12.7,12.7s-5.7,12.7-12.7,12.7c-7.1,0-12.8-5.7-12.7-12.7C552,146.5,557.7,140.8,564.7,140.8z
	 M588.6,246.8c-13,13-34.1,13-47.1,0s-13-34.1,0-47.1c13-13,34.1-13,47.1,0S601.6,233.8,588.6,246.8z"/>
<path class="st0" d="M181.2,254.6c-2.1-2-4.8-3-8-3l-44.5,0.1c-1.9,0-3.4-1.6-3.4-3.5v-86.3c0-3.2-1.1-5.8-3.4-8
	c-2.3-2.1-4.9-3.2-7.8-3.2c-3.4,0-6.2,1.1-8.4,3.2c-2.2,2.1-3.3,4.8-3.3,8v100c0,3.2,1.1,5.8,3.2,8c2.1,2.1,4.8,3.2,8,3.2h59.7
	c3.2,0,5.8-1,8-3c2.1-2,3.2-4.6,3.2-7.6C184.4,259.2,183.3,256.6,181.2,254.6z"/>
<path class="st0" d="M285.6,224.1c0,10-2.2,18.9-6.7,26.5s-10.5,13.6-18,17.9s-15.9,6.4-25.2,6.4s-17.7-2.1-25.2-6.4
	s-13.5-10.2-18-17.9c-4.5-7.6-6.7-16.5-6.7-26.5s2.2-18.9,6.7-26.5s10.5-13.6,18-18c7.5-4.3,15.9-6.5,25.2-6.5s17.7,2.2,25.2,6.5
	s13.5,10.3,18,18C283.3,205.2,285.6,214,285.6,224.1z M263.5,224.1c0-6.2-1.3-11.7-3.8-16.2c-2.5-4.6-5.9-8.2-10.1-10.7
	c-4.2-2.6-8.9-3.9-14-3.9s-9.8,1.3-14,3.9c-4.2,2.6-7.6,6.1-10.1,10.7c-2.5,4.6-3.8,10-3.8,16.2c0,6.1,1.3,11.5,3.8,16.1
	s5.9,8.2,10.1,10.7c4.2,2.6,8.9,3.9,14,3.9s9.8-1.3,14-3.9c4.2-2.6,7.6-6.2,10.1-10.7C262.3,235.5,263.5,230.2,263.5,224.1z"/>
<path class="st0" d="M346,275.3c-27.8,0-50.4-22.9-50.4-51.1s22.6-51.1,50.4-51.1c12.6,0,24.7,4.8,34.1,13.5c4.3,4,4.5,10.7,0.5,15
	s-10.7,4.5-15,0.5c-5.4-5-12.3-7.8-19.6-7.8c-16.1,0-29.2,13.4-29.2,29.9S329.9,254,346,254c7.2,0,14.2-2.8,19.6-7.8
	c4.3-4,11-3.8,15,0.5s3.8,11-0.5,15C370.8,270.5,358.6,275.3,346,275.3z"/>
<path class="st1" d="M488.9,176.1c-2.1-2.1-4.7-3.1-7.9-3.1c-3.2,0-5.8,1.1-7.9,3.2c-1.7,1.7-2.7,5.9-3,9
	c-7.6-7.1-17.4-11.5-28.1-12.1c-0.5-0.1-1.1-0.1-1.6-0.1c-0.2,0-0.4,0-0.6,0c-0.1,0-0.2,0-0.3,0c-0.5,0-1,0.1-1.5,0.1
	c-0.3,0-0.6,0-1,0.1c-24.9,1.4-44.7,23.6-44.7,50.8c0,28.1,21.1,50.9,47.1,50.9c0.2,0,0.4,0,0.6,0c0.3,0,0.7,0,1,0
	c0.6,0,1.2-0.1,1.8-0.2c10.4-0.8,19.9-5.3,27.3-12.3c0.5,2.8,1.4,6,2.8,7.4c2.1,2.1,4.7,3.2,7.9,3.2c3.2,0,5.8-1.1,7.9-3.2
	s3.1-4.8,3.1-8v-77.6C492,180.9,491,178.2,488.9,176.1z M439.5,254.7c-15.7,0-28.4-13.8-28.4-30.7s12.7-30.7,28.4-30.7
	c15.7,0,28.4,13.8,28.4,30.7S455.2,254.7,439.5,254.7z"/>
</svg>
