<?xml version="1.0" encoding="utf-8"?>
<!-- Generator: Adobe Illustrator 23.1.1, SVG Export Plug-In . SVG Version: 6.00 Build 0)  -->
<svg version="1.1" id="Layer_1" xmlns="http://www.w3.org/2000/svg" xmlns:xlink="http://www.w3.org/1999/xlink" x="0px" y="0px"
	 viewBox="0 0 192 192" enable-background="new 0 0 192 192" xml:space="preserve">
<path fill="none" stroke="#FFFFFF" stroke-width="12" stroke-linecap="round" stroke-linejoin="round" stroke-miterlimit="3" d="
	M34.1,132.7c-20.3-34.2-9-78.3,25.2-98.6s78.3-9,98.6,25.2s9,78.3-25.2,98.6c-22.6,13.4-50.8,13.4-73.4,0l0,0L34.4,165
	c-3.2,0.9-6.5-0.9-7.4-4.1c-0.3-1.1-0.3-2.2,0-3.3L34.1,132.7L34.1,132.7z"/>
<path fill="none" stroke="#FFFFFF" stroke-width="12" stroke-linecap="round" stroke-linejoin="round" stroke-miterlimit="3" d="
	M114.1,138c-33.1,0-60-26.8-60.1-59.9c0-0.1,0-0.1,0-0.2C54,66.3,63.4,57,75,57l0,0c1.9,0,3.6,1,4.5,2.6l8.8,15.3
	c1.1,1.9,1.1,4.2-0.1,6.1l-7,11.7l0,0c3.6,8,10.1,14.5,18.1,18.1l0,0l11.7-7c1.9-1.1,4.2-1.1,6.1-0.1l15.3,8.8
	c1.6,0.9,2.6,2.6,2.6,4.5l0,0C135,128.6,125.6,137.9,114.1,138z"/>
</svg>
