<?xml version="1.0" encoding="utf-8"?>
<!-- Generator: Adobe Illustrator 23.1.1, SVG Export Plug-In . SVG Version: 6.00 Build 0)  -->
<svg version="1.1" id="Layer_1" xmlns="http://www.w3.org/2000/svg" xmlns:xlink="http://www.w3.org/1999/xlink" x="0px" y="0px"
	 viewBox="0 0 192 192" enable-background="new 0 0 192 192" xml:space="preserve">
<rect fill="none" width="192" height="192"/>
<path fill="none" stroke="#000000" stroke-width="12" stroke-linecap="round" stroke-linejoin="round" stroke-miterlimit="3" d="
	M40.8,151.2c-6.9-6.9-2.3-21.4-5.8-29.9c-3.6-8.8-17-15.9-17-25.3c0-9.4,13.4-16.5,17-25.3c3.5-8.5-1.1-23,5.8-29.9
	s21.4-2.3,29.9-5.8c8.8-3.6,15.9-17,25.3-17c9.4,0,16.5,13.4,25.3,17c8.5,3.5,23-1.1,29.9,5.8c6.9,6.9,2.3,21.4,5.8,29.9
	c3.6,8.8,17,15.9,17,25.3c0,9.4-13.4,16.5-17,25.3c-3.5,8.5,1.1,23-5.8,29.9c-6.9,6.9-21.4,2.3-29.9,5.8c-8.8,3.6-15.9,17-25.3,17
	c-9.4,0-16.5-13.4-25.3-17C62.2,153.5,47.7,158.1,40.8,151.2z"/>
<circle cx="96" cy="135" r="9"/>
<path fill="none" stroke="#000000" stroke-width="12" stroke-linecap="round" stroke-linejoin="round" stroke-miterlimit="3" d="
	M96,108v-6c11.6,0,21-9.4,21-21s-9.4-21-21-21s-21,9.4-21,21"/>
</svg>
