<?xml version="1.0" encoding="utf-8"?>
<!-- Generator: Adobe Illustrator 23.1.1, SVG Export Plug-In . SVG Version: 6.00 Build 0)  -->
<svg version="1.1" id="Layer_1" xmlns="http://www.w3.org/2000/svg" xmlns:xlink="http://www.w3.org/1999/xlink" x="0px" y="0px"
	 viewBox="0 0 100 100" enable-background="new 0 0 100 100" xml:space="preserve">
<circle fill="#06121E" cx="50" cy="50" r="50"/>
<path id="_x38__5_" fill="#FFFFFF" d="M71.2,56.1c-0.2-0.5-0.5-0.9-0.8-1.3c-0.3-0.5-0.7-1-1-1.5c-0.1-0.1-0.2-0.3-0.3-0.4
	c-0.2-0.2-0.4-0.5-0.6-0.7c-1.3-1.5-2.7-2.8-4.2-4.1c-1.8-1.7-3.9-3.5-5.8-5.1c0.7-0.6,1.4-1.2,2-1.8c1.1-0.9,2.1-1.9,3.1-3
	c0.2-0.2,0.3-0.4,0.5-0.5c0.1-0.1,0.2-0.2,0.2-0.3c0.3-0.3,0.5-0.7,0.8-1.1c0.2-0.3,0.4-0.6,0.6-1c1.1-2.2,1.7-4.6,1.7-7.1
	c0-3.1-0.9-6.1-2.6-8.9c-0.8-1.3-1.9-2.5-3.1-3.6c-3.2-2.9-7.3-4.5-11.5-4.5c0,0,0,0,0,0s0,0,0,0c-4.3,0-8.4,1.6-11.5,4.5
	c-1.2,1.1-2.2,2.3-3.1,3.6c-1.7,2.8-2.6,5.9-2.6,8.9c0,2.5,0.6,4.9,1.7,7.1c0.2,0.3,0.4,0.6,0.6,1c0.2,0.4,0.5,0.7,0.8,1.1
	c0.1,0.1,0.2,0.2,0.2,0.3c0.1,0.2,0.3,0.3,0.5,0.5c1,1.1,2,2.1,3.1,3c0.6,0.6,1.3,1.2,2,1.8c-2,1.7-4,3.4-5.8,5.1
	c-1.5,1.3-2.9,2.6-4.2,4.1c-0.2,0.3-0.4,0.5-0.6,0.7c-0.1,0.1-0.2,0.3-0.3,0.4c-0.4,0.5-0.7,0.9-1,1.5c-0.3,0.4-0.6,0.9-0.8,1.3
	c-1.6,3-2.3,6.3-2.3,9.7c0,4.2,1.2,8.4,3.5,12.1c1.2,1.8,2.6,3.4,4.2,4.9c4.3,3.9,9.9,6.1,15.7,6.1c0,0,0,0,0,0c0,0,0,0,0,0
	c5.8,0,11.4-2.2,15.7-6.1c1.6-1.5,3-3.1,4.2-4.9c2.3-3.7,3.5-8,3.5-12.1C73.5,62.4,72.7,59.1,71.2,56.1z M46.2,32.5
	c-0.4-0.3-0.8-0.7-1.1-1.1c-0.1-0.1-0.1-0.1-0.2-0.2c0,0-0.1-0.1-0.1-0.1c-0.1-0.1-0.2-0.3-0.3-0.4c-0.1-0.1-0.1-0.2-0.2-0.4
	c-0.4-0.8-0.6-1.7-0.6-2.6c0-1.1,0.3-2.3,1-3.3c0.3-0.5,0.7-0.9,1.1-1.3c1.2-1.1,2.7-1.7,4.3-1.7c0,0,0,0,0,0c0,0,0,0,0,0
	c1.6,0,3.1,0.6,4.3,1.7c0.4,0.4,0.8,0.8,1.1,1.3c0.6,1,1,2.2,1,3.3c0,0.9-0.2,1.8-0.6,2.6c-0.1,0.1-0.1,0.2-0.2,0.4
	c-0.1,0.1-0.2,0.3-0.3,0.4c0,0-0.1,0.1-0.1,0.1c0,0.1-0.1,0.1-0.2,0.2c-0.3,0.4-0.7,0.8-1.1,1.1c-1.5,1.4-3.5,3-3.8,3.3l0,0l0,0l0,0
	l0,0C49.7,35.5,47.6,33.9,46.2,32.5z M60.6,72.5c-0.6,0.9-1.4,1.8-2.2,2.6c-2.3,2.1-5.3,3.3-8.4,3.3h0h0c-3.1,0-6.1-1.2-8.4-3.3
	c-0.9-0.8-1.6-1.7-2.2-2.6c-1.2-2-1.9-4.2-1.9-6.4c0-1.8,0.4-3.6,1.2-5.1c0.1-0.2,0.3-0.5,0.4-0.7c0.2-0.3,0.4-0.5,0.6-0.8
	c0.1-0.1,0.1-0.1,0.2-0.2c0.1-0.1,0.2-0.3,0.3-0.4c0.7-0.8,1.4-1.5,2.2-2.2c3-2.8,7-6,7.6-6.5l0,0l0,0c0.5,0.5,4.6,3.7,7.6,6.5
	c0.8,0.7,1.5,1.4,2.2,2.2c0.1,0.1,0.2,0.3,0.3,0.4c0.1,0.1,0.1,0.1,0.2,0.2c0.2,0.3,0.4,0.5,0.6,0.8c0.1,0.2,0.3,0.5,0.4,0.7
	c0.8,1.6,1.2,3.4,1.2,5.1C62.5,68.2,61.9,70.5,60.6,72.5z"/>
</svg>
