<?xml version="1.0" encoding="utf-8"?>
<!-- Generator: Adobe Illustrator 23.1.1, SVG Export Plug-In . SVG Version: 6.00 Build 0)  -->
<svg version="1.1" id="Layer_1" xmlns="http://www.w3.org/2000/svg" xmlns:xlink="http://www.w3.org/1999/xlink" x="0px" y="0px"
	 viewBox="0 0 656.2 307.9" style="enable-background:new 0 0 656.2 307.9;" xml:space="preserve">
<style type="text/css">
	.st0{fill:#FFFFFF;}
</style>
<rect width="656.2" height="307.9"/>
<path id="_x38_" class="st0" d="M573.2,137.3c-4.7-4.6-9.6-8.4-14.9-10.5c4.6-5.3,7.7-12.5,7.7-20.2c0-17-14-31-31-31s-31,14-31,31
	c0,7.8,2.7,14.6,7.4,20.2c-5.6,2.7-10.5,6.1-15.2,10.8c-10.5,10.5-16.1,23.6-16.1,38.7c0,15.1,5.3,27.9,16.1,38.7
	c10.5,10.5,23.5,16.1,38.7,16.1s27.9-5.3,38.7-16.1c10.5-10.5,16.1-23.5,16.3-38.6C589.6,161.2,583.7,147.8,573.2,137.3z
	 M534.6,93.9c7,0,12.7,5.7,12.7,12.7s-5.7,12.7-12.7,12.7c-7.1,0-12.8-5.7-12.7-12.7C521.9,99.6,527.6,93.9,534.6,93.9z
	 M558.5,199.9c-13,13-34.1,13-47.1,0c-13-13-13-34.1,0-47.1c13-13,34.1-13,47.1,0S571.5,186.9,558.5,199.9z"/>
<path id="a" class="st0" d="M460.6,180.4v39.1c0,5.8-5.1,10.6-11.4,10.6c-5.2,0-9.8-3.5-11.2-8.6c-20.4,13.4-47.4,10.9-65-6
	c-9.4-9.3-14.6-22-14.6-35.2c-0.1-13.2,5.1-25.9,14.6-35.2c17.4-17.3,44.6-19.9,65-6.2c1.2-5.2,5.9-8.8,11.2-8.8
	c6.2,0,11.4,4.8,11.4,10.8V180.4z M437.8,180.4c0.1-7.7-2.9-15.2-8.4-20.6c-5.3-5.4-12.5-8.3-20-8.2c-7.7,0-15,2.8-20,8.2
	c-5.1,5-8.2,12.2-8.2,20.6c-0.1,7.7,2.9,15.1,8.3,20.6c4.9,5,12.2,7.8,20,7.8c15.3,0.4,27.9-11.7,28.3-26.9
	C437.9,181.4,437.9,180.9,437.8,180.4L437.8,180.4z"/>
<path id="c" class="st0" d="M313.9,232.4c-27.8,0-50.4-22.9-50.4-51.1s22.6-51.1,50.4-51.1c12.6,0,24.7,4.8,34.1,13.5
	c4.3,4,4.5,10.7,0.5,15s-10.7,4.5-15,0.5c-5.4-5-12.3-7.8-19.6-7.8c-16.1,0-29.2,13.4-29.2,29.9s13.1,29.8,29.2,29.8
	c7.2,0,14.2-2.8,19.6-7.8c4.3-4,11-3.8,15,0.5s3.8,11-0.5,15C338.7,227.6,326.5,232.4,313.9,232.4z"/>
<path id="o_1_" class="st0" d="M201.8,130.2c-28.2,0-51.1,22.9-51.1,51.1s22.9,51.1,51.1,51.1s51.1-22.9,51.1-51.1
	S230,130.2,201.8,130.2z M201.5,210.7c-16.3,0-29.5-13.2-29.5-29.5s13.2-29.5,29.5-29.5S231,165,231,181.3S217.8,210.7,201.5,210.7z
	"/>
<path id="L" class="st0" d="M145.1,211.7c-2.1-2-4.8-3-8-3l-44.5,0.1c-1.9,0-3.4-1.6-3.4-3.5V110c0-3.2-1.1-5.8-3.4-8
	c-2.3-2.1-4.9-3.2-7.8-3.2c-3.4,0-6.2,1.1-8.4,3.2c-2.2,2.1-3.3,4.8-3.3,8v109c0,3.2,1.1,5.8,3.2,8c2.1,2.1,4.8,3.2,8,3.2h59.7
	c3.2,0,5.8-1,8-3c2.1-2,3.2-4.6,3.2-7.6C148.3,216.3,147.2,213.7,145.1,211.7z"/>
</svg>
