<?xml version="1.0" encoding="utf-8"?>
<!-- Generator: Adobe Illustrator 23.1.1, SVG Export Plug-In . SVG Version: 6.00 Build 0)  -->
<svg version="1.1" id="Layer_2" xmlns="http://www.w3.org/2000/svg" xmlns:xlink="http://www.w3.org/1999/xlink" x="0px" y="0px"
	 viewBox="0 0 748.3 392.3" style="enable-background:new 0 0 748.3 392.3;" xml:space="preserve">
<style type="text/css">
	.st0{fill:#FFFFFF;}
</style>
<path class="st0" d="M622.2,172.4c-4.3-4.3-9.2-8-14.5-10.8c11.7-15.1,8.9-36.9-6.3-48.6c-15.1-11.7-36.9-8.9-48.6,6.3
	c-9.6,12.4-9.6,29.7-0.1,42.1c-5.5,2.9-10.5,6.6-14.9,11c-11.4,11.1-17.7,26.3-17.5,42.2c0,33,26.7,59.7,59.7,59.7
	c33,0,59.7-26.7,59.7-59.7C639.9,198.7,633.6,183.4,622.2,172.4z M580,251.9c-20.6,0-37.3-16.6-37.3-37.2c0,0,0-0.1,0-0.1
	c0-20.6,16.7-37.3,37.3-37.4c20.6,0,37.3,16.7,37.4,37.3c0,9.9-4,19.5-11,26.5C599.5,248.1,589.9,252.1,580,251.9z M580.2,154.8
	c-7.9,0-14.3-6.4-14.3-14.2c0-7.9,6.4-14.3,14.2-14.3c7.9,0,14.3,6.4,14.3,14.2c0,0,0,0,0,0C594.5,148.4,588.1,154.7,580.2,154.8z"
	/>
<path class="st0" d="M308.4,223.9c0-27.8,23.2-50,50.8-50.2c11.5,0.1,22.7,4,31.8,11c4.5,3.6,5.4,10,2.2,14.8c-4,4.8-10.4,5.6-15,2
	c-5.5-4.1-12.1-6.4-19-6.4c-16.2,0-29.6,13.4-29.6,28.8s13.4,28.6,29.6,28.6c6.9-0.1,13.5-2.3,19-6.4c4.4-3.4,11-2.6,15,2.2
	c3.2,4.4,2.4,10.8-2.2,14.8c-9.2,6.7-20.3,10.5-31.8,10.6C331.6,273.7,308.4,251.3,308.4,223.9z"/>
<path class="st0" d="M505.5,223.9V263c0,5.8-5.1,10.6-11.4,10.6c-5.2,0-9.8-3.5-11.2-8.6c-20.4,13.4-47.4,10.9-65-6
	c-9.4-9.3-14.6-22-14.6-35.2c-0.1-13.2,5.1-25.9,14.6-35.2c17.4-17.3,44.6-19.9,65-6.2c1.2-5.2,5.9-8.8,11.2-8.8
	c6.2,0,11.4,4.8,11.4,10.8V223.9z M482.7,223.9c0.1-7.7-2.9-15.2-8.4-20.6c-5.3-5.4-12.5-8.3-20-8.2c-7.7,0-15,2.8-20,8.2
	c-5.1,5-8.2,12.2-8.2,20.6c-0.1,7.7,2.9,15.1,8.3,20.6c4.9,5,12.2,7.8,20,7.8c15.3,0.4,27.9-11.7,28.3-26.9
	C482.8,224.9,482.8,224.4,482.7,223.9L482.7,223.9z"/>
<path class="st0" d="M297.5,223.2c0,9.8-2.2,18.6-6.6,26c-4.4,7.5-10.3,13.4-17.7,17.6c-7.4,4.2-15.6,6.3-24.8,6.3
	c-9.1,0-17.4-2.1-24.8-6.3c-7.4-4.2-13.3-10-17.7-17.6c-4.4-7.5-6.6-16.2-6.6-26c0-9.8,2.2-18.6,6.6-26s10.3-13.4,17.7-17.7
	c7.4-4.2,15.6-6.4,24.8-6.4c9.1,0,17.4,2.2,24.8,6.4c7.4,4.2,13.3,10.1,17.7,17.7C295.2,204.6,297.5,213.3,297.5,223.2z
	 M275.8,223.2c0-6.1-1.3-11.5-3.7-15.9c-2.5-4.5-5.8-8.1-9.9-10.5c-4.1-2.6-8.7-3.8-13.8-3.8s-9.6,1.3-13.8,3.8
	c-4.1,2.6-7.5,6-9.9,10.5c-2.5,4.5-3.7,9.8-3.7,15.9c0,6,1.3,11.3,3.7,15.8s5.8,8.1,9.9,10.5c4.1,2.6,8.7,3.8,13.8,3.8
	s9.6-1.3,13.8-3.8c4.1-2.6,7.5-6.1,9.9-10.5C274.6,234.4,275.8,229.2,275.8,223.2z"/>
<path class="st0" d="M193.1,255.1c-2.1-2-4.8-3-8-3l-44.5,0.1c-1.9,0-3.4-1.6-3.4-3.5v-91.3c0-3.2-1.1-5.8-3.4-8
	c-2.3-2.1-4.9-3.2-7.8-3.2c-3.4,0-6.2,1.1-8.4,3.2c-2.2,2.1-3.3,4.8-3.3,8v105c0,3.2,1.1,5.8,3.2,8c2.1,2.1,4.8,3.2,8,3.2h59.7
	c3.2,0,5.8-1,8-3c2.1-2,3.2-4.6,3.2-7.6C196.3,259.7,195.2,257.1,193.1,255.1z"/>
</svg>
