<?xml version="1.0" encoding="utf-8"?>
<!-- Generator: Adobe Illustrator 23.1.1, SVG Export Plug-In . SVG Version: 6.00 Build 0)  -->
<svg version="1.1" id="Layer_1" xmlns="http://www.w3.org/2000/svg" xmlns:xlink="http://www.w3.org/1999/xlink" x="0px" y="0px"
	 viewBox="0 0 600 300" enable-background="new 0 0 600 300" xml:space="preserve">
<g>
	<path id="_x38__15_" d="M578.8,181.2c-3.5-22.2-22-36.6-37.8-49.5c42.7-30.9,18.4-78.9-19.2-81.3c-47.5,0.4-62.9,54.1-24,81.4
		c-98.6,70,17.2,164.5,71.3,91.5C578.1,211.1,581.2,195.7,578.8,181.2z M524.8,78.1c4.4,1.9,8.4,4.9,10.2,10.4
		c3.6,11.3-6.9,18-15.6,25.1c-1.9-1.3-12-9.2-14.5-13.6C497.8,87.3,512.2,72.9,524.8,78.1z M550.1,199.2
		c-3.6,10.8-11.4,16.8-20,20.5c-24.8,10.3-53.1-18-39-43c4.9-8.7,24.7-24.2,28.5-26.8C536.5,163.9,557.2,177.1,550.1,199.2z"/>
	<path id="Loca" fill="#06121E" d="M384.2,122.3c-35.1,0-63.6,28.5-63.6,63.6c0,0.4,0,0.8,0,1.2c0,0.1,0,0.2,0,0.4
		c-0.6,13.5-8.6,25.5-20.9,31.2c-8.8,4.1-18.6,4.5-27.7,1.2c-9.1-3.3-16.4-9.9-20.5-18.7c-4.1-8.8-4.5-18.6-1.2-27.7
		c3.3-9.1,9.9-16.4,18.7-20.5c9.8-4.6,21.1-4.6,30.9,0.1c6.8,3.2,15,0.3,18.2-6.5c3.2-6.8,0.3-15-6.5-18.2
		c-17.2-8.2-37-8.2-54.3-0.1c-9.3,4.3-17.1,10.7-23.2,18.5c-11.6-14.9-29.8-24.5-50.2-24.5c-35.1,0-63.6,28.4-63.6,63.5l0,0
		c0,20-16.2,36.2-36.2,36.2c-19.2,0-34.9-14.9-36.2-33.8v-96c0-7.6-6.1-13.7-13.7-13.7l0,0c-7.6,0-13.7,6.1-13.7,13.7
		c0,0-0.1,92.5-0.1,93.5c0,35.1,28.5,63.6,63.6,63.6c20.2,0,38.2-9.4,49.9-24.2c11.6,14.8,29.7,24.2,50,24.2
		c20.4,0,38.5-9.6,50.2-24.5c7.3,9.4,17.1,16.5,28.5,20.7c7.1,2.6,14.4,3.8,21.7,3.8c9.2,0,18.4-2,26.9-6
		c9.1-4.3,16.9-10.5,22.9-18.2c11.6,14.7,29.7,24.2,49.9,24.2c13.5,0,26-4.2,36.4-11.4c1.1,6.4,6.7,11.3,13.5,11.3
		c7.6,0,13.7-6.1,13.7-13.7v-46.3c0-1.1,0.1-2.3,0.1-3.4C447.8,150.8,419.3,122.3,384.2,122.3z M184,222.2
		c-20,0-36.2-16.2-36.2-36.2s16.2-36.2,36.2-36.2s36.2,16.2,36.2,36.2S204,222.2,184,222.2z M384.2,222.1c-20,0-36.2-16.2-36.2-36.2
		s16.2-36.2,36.2-36.2c20,0,36.2,16.2,36.2,36.2S404.1,222.1,384.2,222.1z"/>
</g>
</svg>
