<?xml version="1.0" encoding="utf-8"?>
<!-- Generator: Adobe Illustrator 23.1.1, SVG Export Plug-In . SVG Version: 6.00 Build 0)  -->
<svg version="1.1" id="Layer_1" xmlns="http://www.w3.org/2000/svg" xmlns:xlink="http://www.w3.org/1999/xlink" x="0px" y="0px"
	 viewBox="0 0 100 50" enable-background="new 0 0 100 50" xml:space="preserve">
<path id="_x38__5_" d="M91.3,27.3c-0.1-0.2-0.2-0.4-0.3-0.5c-0.1-0.2-0.3-0.4-0.4-0.6c0-0.1-0.1-0.1-0.1-0.2
	c-0.1-0.1-0.2-0.2-0.3-0.3c-0.5-0.6-1-1.1-1.6-1.6c-0.7-0.7-1.5-1.3-2.2-2c0.3-0.3,0.6-0.5,0.7-0.7c0.5-0.4,0.8-0.7,1.2-1.2
	c0.1-0.1,0.1-0.2,0.2-0.2l0.1-0.1c0.1-0.1,0.2-0.3,0.3-0.4c0.1-0.1,0.2-0.3,0.2-0.4c0.5-0.8,0.7-1.8,0.7-2.7c0-1.2-0.4-2.4-1-3.4
	c-0.4-0.5-0.7-0.9-1.2-1.4c-1.2-1.1-2.8-1.8-4.5-1.8l0,0l0,0c-1.7,0-3.3,0.7-4.5,1.8c-0.5,0.5-0.8,0.9-1.2,1.4c-0.7,1-1,2.2-1,3.4
	c0,0.9,0.2,1.9,0.7,2.7c0.1,0.1,0.2,0.3,0.2,0.4c0.1,0.2,0.2,0.3,0.3,0.4l0.1,0.1c0.1,0.1,0.1,0.1,0.2,0.2c0.4,0.5,0.7,0.8,1.2,1.2
	c0.3,0.2,0.6,0.5,0.7,0.7c-0.7,0.7-1.6,1.3-2.2,2c-0.6,0.5-1.1,1-1.6,1.6c-0.1,0.1-0.2,0.2-0.3,0.3c0,0.1-0.1,0.1-0.1,0.2
	c-0.2,0.2-0.3,0.4-0.4,0.6S75,27.2,75,27.3C74.4,28.4,74,29.7,74,31c0,1.6,0.5,3.3,1.4,4.6c0.5,0.7,1,1.3,1.6,1.9
	c1.7,1.5,3.8,2.3,6,2.3l0,0l0,0c2.2,0,4.4-0.8,6-2.3c0.7-0.6,1.2-1.2,1.6-1.9c0.9-1.5,1.4-3.1,1.4-4.6C92.2,29.7,92,28.4,91.3,27.3z
	 M81.6,18.2c-0.2-0.1-0.3-0.3-0.5-0.5l-0.1-0.1l0,0c0-0.1-0.1-0.1-0.1-0.2c0,0-0.1-0.1-0.1-0.2c-0.2-0.3-0.3-0.7-0.3-1
	c0-0.5,0.1-0.8,0.4-1.3c0.1-0.2,0.3-0.4,0.5-0.6c0.5-0.4,1-0.7,1.7-0.7l0,0l0,0c0.7,0,1.2,0.2,1.7,0.7c0.2,0.2,0.3,0.4,0.5,0.6
	c0.3,0.4,0.4,0.8,0.4,1.3c0,0.4-0.1,0.7-0.3,1c0,0.1-0.1,0.1-0.1,0.2c0,0.1-0.1,0.1-0.1,0.2l0,0c0,0,0,0.1-0.1,0.1
	c-0.1,0.2-0.3,0.3-0.5,0.5c-0.6,0.6-1.4,1.1-1.5,1.3l0,0l0,0l0,0l0,0C83,19.4,82.2,18.7,81.6,18.2z M87.2,33.6
	c-0.3,0.4-0.6,0.7-0.8,1c-0.9,0.8-2,1.3-3.3,1.3l0,0l0,0c-1.2,0-2.3-0.5-3.3-1.3c-0.4-0.3-0.7-0.7-0.8-1c-0.5-0.7-0.7-1.7-0.7-2.5
	c0-0.7,0.2-1.4,0.5-2c0.1-0.1,0.1-0.2,0.2-0.3c0.1-0.1,0.2-0.2,0.2-0.3c0,0,0-0.1,0.1-0.1c0-0.1,0.1-0.1,0.1-0.2
	c0.3-0.3,0.6-0.6,0.8-0.8c1.1-1,2.7-2.3,2.9-2.5l0,0l0,0c0.2,0.2,1.8,1.5,2.9,2.5c0.3,0.3,0.6,0.6,0.8,0.8c0.1,0.1,0.1,0.1,0.1,0.2
	c0,0,0,0.1,0.1,0.1c0.1,0.1,0.2,0.2,0.2,0.3c0.1,0.1,0.1,0.2,0.2,0.3c0.3,0.7,0.5,1.3,0.5,2C88,31.9,87.8,32.8,87.2,33.6z"/>
<path id="Loca" fill="#06121E" d="M62.7,20.8c-5.3,0-9.6,4.3-9.6,9.6c0,0.1,0,0.1,0,0.2c0,0,0,0,0,0.1c-0.1,2-1.3,3.8-3.2,4.7
	c-1.3,0.7-2.8,0.7-4.2,0.2s-2.5-1.5-3.1-2.8c-0.7-1.3-0.7-2.8-0.2-4.2c0.5-1.4,1.5-2.5,2.8-3.1c1.5-0.7,3.2-0.7,4.6,0
	c1,0.5,2.2,0.1,2.8-1c0.5-1,0.1-2.2-1-2.8c-2.6-1.2-5.6-1.2-8.2,0c-1.4,0.7-2.6,1.6-3.5,2.8c-1.8-2.2-4.5-3.7-7.5-3.7
	c-5.3,0-9.6,4.3-9.6,9.6l0,0c0,3-2.4,5.5-5.5,5.5c-2.9,0-5.3-2.2-5.5-5.1V16.3c0-1.1-0.9-2-2-2l0,0c-1.1,0-2,0.9-2,2
	c0,0,0,13.9,0,14.1c0,5.3,4.3,9.6,9.6,9.6c3.1,0,5.8-1.4,7.5-3.6c1.8,2.2,4.5,3.6,7.5,3.6s5.9-1.5,7.5-3.7c1.1,1.4,2.6,2.5,4.3,3.2
	c1,0.4,2.1,0.6,3.3,0.6c1.4,0,2.8-0.3,4.1-0.9c1.4-0.7,2.5-1.6,3.4-2.7c1.8,2.2,4.5,3.6,7.5,3.6c2,0,3.9-0.7,5.5-1.8
	c0.2,0.9,1,1.7,2,1.7c1.1,0,2-0.9,2-2v-7c0-0.2,0-0.4,0-0.5C72.4,25.1,68,20.8,62.7,20.8z M32.6,35.8c-3,0-5.5-2.4-5.5-5.5
	s2.4-5.5,5.5-5.5s5.5,2.4,5.5,5.5C38.1,33.4,35.6,35.8,32.6,35.8z M62.7,35.8c-3,0-5.5-2.4-5.5-5.5s2.4-5.5,5.5-5.5
	c3,0,5.5,2.4,5.5,5.5C68.2,33.4,65.8,35.8,62.7,35.8z"/>
</svg>
