<?xml version="1.0" encoding="utf-8"?>
<!-- Generator: Adobe Illustrator 23.1.1, SVG Export Plug-In . SVG Version: 6.00 Build 0)  -->
<svg version="1.1" id="Layer_1" xmlns="http://www.w3.org/2000/svg" xmlns:xlink="http://www.w3.org/1999/xlink" x="0px" y="0px"
	 viewBox="0 0 100 100" enable-background="new 0 0 100 100" xml:space="preserve">
<circle fill="#06121E" cx="50" cy="50" r="50"/>
<path id="_x38__5_" fill="#FFFFFF" d="M91.2,48.3c-0.1-0.2-0.2-0.3-0.3-0.5c-0.1-0.2-0.3-0.4-0.4-0.6c0-0.1-0.1-0.1-0.1-0.2
	c-0.1-0.1-0.2-0.2-0.2-0.3c-0.5-0.6-1-1.1-1.6-1.6c-0.7-0.6-1.5-1.3-2.2-2c0.3-0.2,0.5-0.5,0.8-0.7c0.4-0.4,0.8-0.7,1.2-1.2
	c0.1-0.1,0.1-0.1,0.2-0.2c0,0,0.1-0.1,0.1-0.1c0.1-0.1,0.2-0.3,0.3-0.4c0.1-0.1,0.2-0.2,0.2-0.4c0.4-0.8,0.7-1.8,0.7-2.7
	c0-1.2-0.3-2.4-1-3.4c-0.3-0.5-0.7-1-1.2-1.4C86.3,31.6,84.7,31,83,31c0,0,0,0,0,0c0,0,0,0,0,0c-1.6,0-3.2,0.6-4.4,1.7
	c-0.5,0.4-0.9,0.9-1.2,1.4c-0.7,1.1-1,2.3-1,3.4c0,1,0.2,1.9,0.7,2.7c0.1,0.1,0.1,0.2,0.2,0.4c0.1,0.1,0.2,0.3,0.3,0.4
	c0,0,0.1,0.1,0.1,0.1c0.1,0.1,0.1,0.1,0.2,0.2c0.4,0.4,0.8,0.8,1.2,1.2c0.2,0.2,0.5,0.5,0.8,0.7c-0.8,0.6-1.5,1.3-2.2,2
	c-0.6,0.5-1.1,1-1.6,1.6c-0.1,0.1-0.2,0.2-0.2,0.3c0,0.1-0.1,0.1-0.1,0.2c-0.1,0.2-0.3,0.4-0.4,0.6c-0.1,0.2-0.2,0.3-0.3,0.5
	C74.3,49.5,74,50.7,74,52c0,1.6,0.4,3.2,1.4,4.7c0.4,0.7,1,1.3,1.6,1.9c1.7,1.5,3.8,2.4,6.1,2.4c0,0,0,0,0,0c0,0,0,0,0,0
	c2.2,0,4.4-0.8,6.1-2.4c0.6-0.6,1.2-1.2,1.6-1.9c0.9-1.4,1.4-3.1,1.4-4.7C92.1,50.7,91.8,49.5,91.2,48.3z M81.5,39.3
	c-0.2-0.1-0.3-0.3-0.4-0.4c0,0,0-0.1-0.1-0.1c0,0,0,0,0,0c0,0-0.1-0.1-0.1-0.2c0,0-0.1-0.1-0.1-0.1c-0.2-0.3-0.2-0.7-0.2-1
	c0-0.4,0.1-0.9,0.4-1.3c0.1-0.2,0.3-0.4,0.4-0.5c0.4-0.4,1-0.6,1.6-0.6c0,0,0,0,0,0c0,0,0,0,0,0c0.6,0,1.2,0.2,1.6,0.6
	c0.2,0.2,0.3,0.3,0.4,0.5c0.2,0.4,0.4,0.8,0.4,1.3c0,0.4-0.1,0.7-0.2,1c0,0-0.1,0.1-0.1,0.1c0,0.1-0.1,0.1-0.1,0.2c0,0,0,0,0,0
	c0,0,0,0-0.1,0.1c-0.1,0.2-0.3,0.3-0.4,0.4c-0.6,0.5-1.4,1.2-1.5,1.3l0,0l0,0l0,0l0,0C82.9,40.4,82.1,39.8,81.5,39.3z M87.1,54.6
	c-0.2,0.4-0.5,0.7-0.9,1c-0.9,0.8-2,1.3-3.2,1.3h0h0c-1.2,0-2.3-0.4-3.2-1.3c-0.3-0.3-0.6-0.6-0.9-1c-0.5-0.8-0.7-1.6-0.7-2.5
	c0-0.7,0.2-1.4,0.5-2c0-0.1,0.1-0.2,0.2-0.3c0.1-0.1,0.1-0.2,0.2-0.3c0,0,0-0.1,0.1-0.1c0,0,0.1-0.1,0.1-0.2
	c0.3-0.3,0.6-0.6,0.9-0.8c1.1-1.1,2.7-2.3,2.9-2.5l0,0l0,0c0.2,0.2,1.8,1.4,2.9,2.5c0.3,0.3,0.6,0.5,0.9,0.8c0,0.1,0.1,0.1,0.1,0.2
	c0,0,0,0.1,0.1,0.1c0.1,0.1,0.1,0.2,0.2,0.3c0.1,0.1,0.1,0.2,0.2,0.3c0.3,0.6,0.5,1.3,0.5,2C87.8,53,87.6,53.8,87.1,54.6z"/>
<path id="Loca" fill="#FFFFFF" d="M62.6,41.9c-5.3,0-9.6,4.3-9.6,9.6c0,0.1,0,0.1,0,0.2c0,0,0,0,0,0.1c-0.1,2-1.3,3.8-3.1,4.7
	c-1.3,0.6-2.8,0.7-4.2,0.2c-1.4-0.5-2.5-1.5-3.1-2.8c-0.6-1.3-0.7-2.8-0.2-4.2s1.5-2.5,2.8-3.1c1.5-0.7,3.2-0.7,4.6,0
	c1,0.5,2.3,0,2.7-1c0.5-1,0-2.3-1-2.7c-2.6-1.2-5.6-1.2-8.2,0c-1.4,0.7-2.6,1.6-3.5,2.8c-1.7-2.2-4.5-3.7-7.5-3.7
	c-5.3,0-9.6,4.3-9.6,9.6l0,0c0,3-2.4,5.4-5.4,5.4c-2.9,0-5.2-2.2-5.4-5.1V37.4c0-1.1-0.9-2.1-2.1-2.1l0,0c-1.1,0-2.1,0.9-2.1,2.1
	c0,0,0,13.9,0,14.1c0,5.3,4.3,9.6,9.6,9.6c3,0,5.8-1.4,7.5-3.6c1.7,2.2,4.5,3.6,7.5,3.6c3.1,0,5.8-1.4,7.5-3.7
	c1.1,1.4,2.6,2.5,4.3,3.1c1.1,0.4,2.2,0.6,3.3,0.6c1.4,0,2.8-0.3,4.1-0.9c1.4-0.6,2.5-1.6,3.5-2.7c1.7,2.2,4.5,3.6,7.5,3.6
	c2,0,3.9-0.6,5.5-1.7c0.2,1,1,1.7,2,1.7c1.1,0,2.1-0.9,2.1-2.1v-7c0-0.2,0-0.3,0-0.5C72.2,46.1,67.9,41.9,62.6,41.9z M32.5,56.9
	c-3,0-5.4-2.4-5.4-5.4s2.4-5.4,5.4-5.4s5.4,2.4,5.4,5.4S35.5,56.9,32.5,56.9z M62.6,56.9c-3,0-5.4-2.4-5.4-5.4s2.4-5.4,5.4-5.4
	c3,0,5.4,2.4,5.4,5.4S65.6,56.9,62.6,56.9z"/>
</svg>
