<svg xmlns="http://www.w3.org/2000/svg" width="100" height="100" viewBox="0 0 100 100">
  <title>loca8-logo-v9-circle2</title>
  <circle cx="50" cy="50" r="50"/>
  <path d="M87.7,43.43a7,7,0,0,0-2.29-1.61,4.76,4.76,0,1,0-8.35-3.11,4.71,4.71,0,0,0,1.14,3.11,8,8,0,0,0-2.34,1.66,8.43,8.43,0,0,0,6,14.38,8,8,0,0,0,6-2.48,8.27,8.27,0,0,0,2.51-5.93A8.55,8.55,0,0,0,87.7,43.43Zm-5.93-6.67a2,2,0,1,1-2,2A2,2,0,0,1,81.77,36.76Zm3.67,16.3a5.12,5.12,0,1,1,0-7.24A5.12,5.12,0,0,1,85.44,53.06Z" fill="#fff"/>
  <path d="M70.38,50.06v6a1.7,1.7,0,0,1-1.75,1.63,1.78,1.78,0,0,1-1.72-1.33,8,8,0,0,1-10-.92,7.64,7.64,0,0,1,0-10.83,7.92,7.92,0,0,1,10-1,1.76,1.76,0,0,1,1.72-1.36A1.72,1.72,0,0,1,70.38,44Zm-3.51,0a4.34,4.34,0,0,0-1.29-3.17,4.22,4.22,0,0,0-3.07-1.26,4.15,4.15,0,0,0-3.08,1.26,4.6,4.6,0,0,0,0,6.34,4.31,4.31,0,0,0,3.08,1.2,4.24,4.24,0,0,0,4.35-4.14.45.45,0,0,0,0-.23Z" fill="#fff"/>
  <path d="M47.82,58.06a7.86,7.86,0,0,1,0-15.72,7.7,7.7,0,0,1,5.24,2.08,1.63,1.63,0,1,1-2.23,2.38,4.41,4.41,0,0,0-3-1.2,4.59,4.59,0,0,0,0,9.18,4.45,4.45,0,0,0,3-1.2A1.63,1.63,0,0,1,53.06,56,7.64,7.64,0,0,1,47.82,58.06Z" fill="#fff"/>
  <path d="M30.57,42.34a7.86,7.86,0,1,0,7.86,7.86A7.86,7.86,0,0,0,30.57,42.34Zm0,12.38a4.54,4.54,0,1,1,4.53-4.52A4.54,4.54,0,0,1,30.53,54.72Z" fill="#fff"/>
  <path d="M21.85,54.88a1.71,1.71,0,0,0-1.23-.47l-6.85,0a.53.53,0,0,1-.52-.54V39.23A1.63,1.63,0,0,0,12.73,38a1.83,1.83,0,0,0-2.49,0,1.63,1.63,0,0,0-.51,1.23V56a1.72,1.72,0,0,0,.49,1.23,1.69,1.69,0,0,0,1.23.49h9.18a1.75,1.75,0,0,0,1.24-.46,1.59,1.59,0,0,0,.49-1.17A1.67,1.67,0,0,0,21.85,54.88Z" fill="#fff"/>
</svg>
