<?xml version="1.0" encoding="utf-8"?>
<!-- Generator: Adobe Illustrator 23.1.1, SVG Export Plug-In . SVG Version: 6.00 Build 0)  -->
<svg version="1.1" id="Layer_1" xmlns="http://www.w3.org/2000/svg" xmlns:xlink="http://www.w3.org/1999/xlink" x="0px" y="0px"
	 viewBox="0 0 100 100" enable-background="new 0 0 100 100" xml:space="preserve">
<circle fill="#06121E" cx="50" cy="50" r="50"/>
<path id="_x38__15_" fill="#FFFFFF" d="M92.3,52.7c-0.5-3.4-3.3-5.6-5.7-7.5c6.5-4.7,2.8-12-2.9-12.3c-7.2,0.1-9.5,8.2-3.6,12.3
	c-15,10.6,2.6,25,10.8,13.9C92.2,57.3,92.7,54.9,92.3,52.7z M84.1,37.1c0.7,0.3,1.3,0.7,1.6,1.6c0.5,1.7-1.1,2.7-2.4,3.8
	c-0.3-0.2-1.8-1.4-2.2-2.1C80,38.5,82.2,36.3,84.1,37.1z M87.9,55.5c-0.5,1.6-1.7,2.6-3,3.1c-3.8,1.6-8.1-2.7-5.9-6.5
	c0.7-1.3,3.7-3.7,4.3-4.1C85.9,50.1,89,52.1,87.9,55.5z"/>
<path id="Loca_1_" fill="#FFFFFF" d="M62.8,43.8c-5.3,0-9.6,4.3-9.6,9.6c0,0.1,0,0.1,0,0.2c0,0,0,0,0,0.1c-0.1,2.1-1.3,3.9-3.2,4.7
	c-1.3,0.6-2.8,0.7-4.2,0.2c-1.4-0.5-2.5-1.5-3.1-2.8c-0.6-1.3-0.7-2.8-0.2-4.2s1.5-2.5,2.8-3.1c1.5-0.7,3.2-0.7,4.7,0
	c1,0.5,2.3,0,2.8-1c0.5-1,0-2.3-1-2.8c-2.6-1.2-5.6-1.2-8.2,0c-1.4,0.7-2.6,1.6-3.5,2.8c-1.8-2.3-4.5-3.7-7.6-3.7
	c-5.3,0-9.6,4.3-9.6,9.6l0,0c0,3-2.5,5.5-5.5,5.5c-2.9,0-5.3-2.3-5.5-5.1V39.2c0-1.1-0.9-2.1-2.1-2.1l0,0c-1.1,0-2.1,0.9-2.1,2.1
	c0,0,0,14,0,14.2c0,5.3,4.3,9.6,9.6,9.6c3.1,0,5.8-1.4,7.6-3.7c1.8,2.2,4.5,3.7,7.6,3.7c3.1,0,5.8-1.5,7.6-3.7
	c1.1,1.4,2.6,2.5,4.3,3.1c1.1,0.4,2.2,0.6,3.3,0.6c1.4,0,2.8-0.3,4.1-0.9c1.4-0.6,2.6-1.6,3.5-2.8c1.8,2.2,4.5,3.7,7.6,3.7
	c2.1,0,4-0.6,5.5-1.7c0.2,1,1,1.7,2,1.7c1.1,0,2.1-0.9,2.1-2.1v-7c0-0.2,0-0.3,0-0.5C72.4,48.1,68.1,43.8,62.8,43.8z M32.4,59
	c-3,0-5.5-2.5-5.5-5.5s2.5-5.5,5.5-5.5c3,0,5.5,2.5,5.5,5.5S35.4,59,32.4,59z M62.8,58.9c-3,0-5.5-2.5-5.5-5.5c0-3,2.5-5.5,5.5-5.5
	c3,0,5.5,2.5,5.5,5.5C68.3,56.5,65.8,58.9,62.8,58.9z"/>
</svg>
