<?xml version="1.0" encoding="utf-8"?>
<svg version="1.1" id="Layer_1" xmlns="http://www.w3.org/2000/svg" xmlns:xlink="http://www.w3.org/1999/xlink" x="0px" y="0px"
	 viewBox="0 0 100 100" enable-background="new 0 0 100 100" xml:space="preserve">
<circle cx="50" cy="50" r="50"/>
<path id="_x38_" fill="#FFFFFF" d="M87.7,43.4c-0.7-0.7-1.5-1.3-2.3-1.6c0.7-0.8,1.2-1.9,1.2-3.1c0-2.6-2.2-4.8-4.8-4.8
	s-4.8,2.2-4.8,4.8c0,1.2,0.4,2.2,1.1,3.1c-0.9,0.4-1.6,0.9-2.3,1.7c-1.6,1.6-2.5,3.6-2.5,6s0.8,4.3,2.5,6c1.6,1.6,3.6,2.5,6,2.5
	s4.3-0.8,6-2.5c1.6-1.6,2.5-3.6,2.5-5.9C90.2,47.1,89.3,45,87.7,43.4z M81.8,36.8c1.1,0,2,0.9,2,2c0,1.1-0.9,2-2,2c-1.1,0-2-0.9-2-2
	C79.8,37.6,80.7,36.8,81.8,36.8z M85.4,53.1c-2,2-5.2,2-7.2,0c-2-2-2-5.2,0-7.2c2-2,5.2-2,7.2,0C87.4,47.8,87.4,51.1,85.4,53.1z"/>
<path id="a" fill="#FFFFFF" d="M70.4,50.1v6c0,0.9-0.8,1.6-1.8,1.6c-0.8,0-1.5-0.5-1.7-1.3c-3.1,2.1-7.3,1.7-10-0.9
	c-1.4-1.4-2.2-3.4-2.2-5.4c0-2,0.8-4,2.2-5.4c2.7-2.7,6.9-3.1,10-1c0.2-0.8,0.9-1.4,1.7-1.4c1,0,1.8,0.7,1.8,1.7V50.1z M66.9,50.1
	c0-1.2-0.4-2.3-1.3-3.2c-0.8-0.8-1.9-1.3-3.1-1.3c-1.2,0-2.3,0.4-3.1,1.3c-0.8,0.8-1.3,1.9-1.3,3.2c0,1.2,0.4,2.3,1.3,3.2
	c0.8,0.8,1.9,1.2,3.1,1.2c2.4,0.1,4.3-1.8,4.4-4.1C66.9,50.2,66.9,50.1,66.9,50.1L66.9,50.1z"/>
<path id="c" fill="#FFFFFF" d="M47.8,58.1c-4.3,0-7.8-3.5-7.8-7.9s3.5-7.9,7.8-7.9c1.9,0,3.8,0.7,5.2,2.1c0.7,0.6,0.7,1.6,0.1,2.3
	c-0.6,0.7-1.6,0.7-2.3,0.1c-0.8-0.8-1.9-1.2-3-1.2c-2.5,0-4.5,2.1-4.5,4.6s2,4.6,4.5,4.6c1.1,0,2.2-0.4,3-1.2
	c0.7-0.6,1.7-0.6,2.3,0.1c0.6,0.7,0.6,1.7-0.1,2.3C51.6,57.3,49.8,58.1,47.8,58.1z"/>
<path id="o_1_" fill="#FFFFFF" d="M30.6,42.3c-4.3,0-7.9,3.5-7.9,7.9s3.5,7.9,7.9,7.9s7.9-3.5,7.9-7.9S34.9,42.3,30.6,42.3z
	 M30.5,54.7c-2.5,0-4.5-2-4.5-4.5c0-2.5,2-4.5,4.5-4.5c2.5,0,4.5,2,4.5,4.6C35.1,52.7,33,54.7,30.5,54.7z"/>
<path id="L" fill="#FFFFFF" d="M21.8,54.9c-0.3-0.3-0.7-0.5-1.2-0.5l-6.8,0c-0.3,0-0.5-0.2-0.5-0.5V39.2c0-0.5-0.2-0.9-0.5-1.2
	c-0.4-0.3-0.8-0.5-1.2-0.5c-0.5,0-1,0.2-1.3,0.5c-0.3,0.3-0.5,0.7-0.5,1.2V56c0,0.5,0.2,0.9,0.5,1.2c0.3,0.3,0.7,0.5,1.2,0.5h9.2
	c0.5,0,0.9-0.2,1.2-0.5c0.3-0.3,0.5-0.7,0.5-1.2C22.3,55.6,22.2,55.2,21.8,54.9z"/>
</svg>
