<?xml version="1.0" encoding="utf-8"?>
<!-- Generator: Adobe Illustrator 23.1.1, SVG Export Plug-In . SVG Version: 6.00 Build 0)  -->
<svg version="1.1" xmlns="http://www.w3.org/2000/svg" xmlns:xlink="http://www.w3.org/1999/xlink" x="0px" y="0px"
	 viewBox="0 0 2000 1500" style="enable-background:new 0 0 2000 1500;" xml:space="preserve">
<style type="text/css">
	.st0{display:none;fill:#06121E;}
	.st1{display:none;}
	.st2{display:inline;fill:none;stroke:#050505;stroke-width:21;stroke-linecap:round;stroke-miterlimit:10;}
	.st3{display:inline;fill:#06121E;}
	.st4{fill:#FFFFFF;}
	.st5{fill:#06121E;}
	.st6{display:none;stroke:#000000;stroke-width:69.5;stroke-miterlimit:10;}
	.st7{fill:#020202;}
	.st8{display:inline;fill:none;stroke:#06121E;stroke-width:5;stroke-linecap:round;stroke-linejoin:round;stroke-miterlimit:10;}
	.st9{display:none;fill:#A7A7A7;}
	.st10{display:none;fill:#12A8D6;}
	.st11{fill:none;}
</style>
<g id="Layer_1">
	<rect id="BG" y="-73.4" class="st0" width="2000" height="1646.8"/>
	<g id="Loca8">
		<g id="a_2_" class="st1">
			<path class="st2" d="M1327,786.4c9.8,62.8,22.9,100.9,45.7,134.7"/>
			<path id="a_1_" class="st3" d="M1203.3,642.3c-85.9,0-155.7,69.8-155.7,155.7c0,85.9,69.8,155.7,155.7,155.7S1359,884,1359,798
				S1289.2,642.3,1203.3,642.3z M1202.4,887.6c-49.7,0-89.9-40.2-89.9-89.9s40.2-89.9,89.9-89.9s89.9,40.5,89.9,90.2
				S1252.1,887.6,1202.4,887.6z"/>
		</g>
		<path id="a" class="st4" d="M1361.2,801.4v119.2c0,17.7-15.5,32.3-34.7,32.3c-15.8,0-29.9-10.7-34.1-26.2
			c-62.2,40.8-144.5,33.2-198.1-18.3c-28.6-28.3-44.5-67.1-44.5-107.3c-0.3-40.2,15.5-78.9,44.5-107.3
			c53-52.7,135.9-60.7,198.1-18.9c3.7-15.8,18-26.8,34.1-26.8c18.9,0,34.7,14.6,34.7,32.9V801.4z M1291.7,801.4
			c0.3-23.5-8.8-46.3-25.6-62.8c-16.2-16.5-38.1-25.3-61-25c-23.5,0-45.7,8.5-61,25c-15.5,15.2-25,37.2-25,62.8
			c-0.3,23.5,8.8,46,25.3,62.8c14.9,15.2,37.2,23.8,61,23.8c46.6,1.2,85-35.7,86.3-82C1292,804.4,1292,802.9,1291.7,801.4
			L1291.7,801.4z"/>
		<path id="a_3_" class="st5" d="M1289.2,674.6v0.3c-62.2-41.8-145.1-33.8-198.1,18.9c-29,28.3-44.8,67.1-44.5,107.3
			c0,40.2,15.8,78.9,44.5,107.3c53.6,51.5,135.9,59.1,198.1,18.3c4.3,15.5,18.3,26.2,34.1,26.2c19.2,0,34.7-14.6,34.7-32.3V801.4
			v-1.8C1356.6,747.4,1329.8,701.7,1289.2,674.6z M1288.6,805.9c-1.2,46.3-39.6,83.2-86.3,82c-23.8,0-46-8.5-61-23.8
			c-16.5-16.8-25.6-39.3-25.3-62.8c0-25.6,9.4-47.5,25-62.8c15.2-16.5,37.5-25,61-25c22.9-0.3,44.8,8.5,61,25
			c16.8,16.5,25.9,39.3,25.6,62.8C1288.9,802.9,1288.9,804.4,1288.6,805.9z"/>
		<path id="c" class="st5" d="M1020.7,941.9c-77.7,34.1-168.9-2.1-203.3-80.8s0.3-170.4,78-204.5c35.1-15.5,74.7-16.8,111.6-4.3
			c17.1,8.2,25.6,24.4,19.8,41.1s-24.4,25.6-41.1,19.8c-21.3-7.3-43.9-6.7-64.3,2.1c-44.8,19.8-64.9,73.1-44.8,119.2
			c20.1,46,73.1,67.1,118,47.2c20.1-8.8,38.4-22.9,45.1-45.7c7.9-19.8,7-89,14.9-52.7c3.7,17.4,51.5,61.6,44.5,78
			C1084.1,898,1055.8,926.3,1020.7,941.9z"/>
		<path id="o_1_" class="st5" d="M712.6,642c-85.9,0-155.7,69.8-155.7,155.7s69.8,155.7,155.7,155.7s155.7-69.8,155.7-155.7
			S798.5,642,712.6,642z M711.7,887.3c-49.7,0-89.9-40.2-89.9-89.9s40.2-89.9,89.9-89.9s89.9,40.5,89.9,90.2
			C801.6,847.4,761.4,887.3,711.7,887.3z"/>
		<path class="st5" d="M367.3,787V526.1c0-9.8-3.4-17.7-10.4-24.4c-7-6.4-14.9-9.8-23.8-9.8c-10.4,0-18.9,3.4-25.6,9.8
			c-6.7,6.4-10.1,14.6-10.1,24.4V787l0,0c0.3,92,75.3,166.7,167.3,166.7c0.3,0,1.5,0,3.4,0v-0.3c21.6-0.3,43.6-4.6,64.9-14
			c38.1-16.8,68.9-47.5,85.3-86.6c7.6-18-29.9-79.2-47.9-86.9c-18.6-0.3-10.1,33.2-16.8,59.1c-6.7,24.1-27.1,40.2-49.1,49.7
			c-48.8,21.3-106.1-1.5-128-51.5c-4.9-11-7.9-22.6-9.1-34.1"/>
		<path class="st1" d="M1551.6,585.6c16.6,16.6,32.7,32.7,49,49c18.7-18.9,39.1-36.7,51.3-61.5c41.6-84.3-11.4-186.1-104.3-199.7
			c-77.9-11.5-149.7,42.5-159.2,120.6c-5.5,44.7,8,83.8,39.7,115.9c49,49.5,98.3,98.5,147.6,147.7c12.4,12.4,19.5,27.3,21,44.8
			c3.2,35.5-22.6,69.1-57.8,74.8c-42.9,7-80.9-23.7-82.5-67.2c-0.7-20,6.4-37.4,20.5-51.7c8.3-8.4,16.7-16.6,24.7-24.6
			c-16.5-16.5-32.6-32.6-49-49c-19,19.1-39.5,37.2-51.8,62.6c-40.1,82.9,11.2,183,102,198.1c76.9,12.7,148.6-37.7,161.2-114.4
			c7.7-46.7-5.6-87.8-38.9-121.6c-48.8-49.4-98.1-98.3-147.3-147.4c-12.6-12.6-19.8-27.7-21.4-45.5c-3.1-34.9,22.7-68.5,57.4-74.3
			c43-7.2,81.3,23.5,82.9,67.1c0.7,20-6.4,37.4-20.5,51.7C1568.1,569.4,1559.7,577.6,1551.6,585.6z"/>
		<line class="st6" x1="1474.6" y1="711.4" x2="1576.8" y2="609.2"/>
		<path id="_x38_" class="st0" d="M1670.8,666.9c-14.3-14-29.3-25.6-45.4-32c14-16.2,23.5-38.1,23.5-61.6
			c0-51.8-42.7-94.5-94.5-94.5c-51.8,0-94.5,42.7-94.5,94.5c0,23.8,8.2,44.5,22.6,61.6c-17.1,8.2-32,18.6-46.3,32.9
			c-32,32-49.1,71.9-49.1,118s16.2,85,49.1,118c32,32,71.6,49.1,118,49.1c46.3,0,85-16.2,118-49.1c32-32,49.1-71.6,49.7-117.6
			C1720.8,739.8,1702.8,698.9,1670.8,666.9z M1553.2,534.7c21.3,0,38.7,17.4,38.7,38.7s-17.4,38.7-38.7,38.7
			c-21.6,0-39-17.4-38.7-38.7C1514.5,552,1531.8,534.7,1553.2,534.7z M1626,857.7c-39.6,39.6-103.9,39.6-143.6,0
			s-39.6-103.9,0-143.6s103.9-39.6,143.6,0S1665.7,818.1,1626,857.7z"/>
		<path class="st7" d="M1553.9,955.3l-0.7,0c-34.7-0.1-67.6-11.3-95.3-32.6c-22.4-17.2-39.8-39.9-50.3-65.4
			c-7.7-18.7-11.6-38.4-11.4-58.6c0.1-33.9,11.4-66.5,32.6-94.2c18.2-23.8,42.3-44.5,63.6-62.7c0,0,0.1-0.1,0.1-0.1
			c-2.8-2.9-6-5.9-9.2-9.1c-8.5-8.3-18.2-17.8-25.5-26.4c-8.1-9.6-14.8-20.1-20.1-31.2c-9.6-19.7-14.1-41.3-12.8-62.4
			c1.2-21.2,8.1-42.1,20-60.3c5.7-8.9,12.7-17.3,20.6-24.8c22-20.6,50.5-33,80.3-34.8c0.9-0.1,1.8-0.1,2.7-0.1l0.6,0
			c0.7,0,1.4,0,2.1-0.1l1.1,0c0.5,0,1,0,1.5,0h0.2c0.5,0,1,0,1.5,0l1.1,0c0.7,0,1.4,0,2.1,0.1l0.5,0c0.9,0,1.8,0.1,2.6,0.1
			c29.8,1.8,58.3,14.2,80.3,34.8c8,7.5,14.9,15.8,20.7,24.8c11.8,18.2,18.8,39,20,60.2c1.2,21.1-3.2,42.7-12.8,62.4
			c-5.2,11.1-11.9,21.6-20.1,31.2c-7.3,8.7-16.9,18.1-25.5,26.4c-3.2,3.2-6.4,6.2-9.2,9.1c0,0,0.1,0.1,0.1,0.1
			c21.3,18.2,45.4,38.9,63.6,62.7c21.2,27.7,32.5,60.3,32.6,94.3c0.2,20.2-3.7,39.9-11.4,58.6c-10.4,25.5-27.8,48.1-50.2,65.4
			c-27.6,21.2-60.6,32.5-95.3,32.6L1553.9,955.3z M1553.7,884.8h0.4c0.6,0,1.2,0,1.8,0c0.5,0,1,0,1.5-0.1l0.6,0
			c0.6,0,1.3-0.1,1.9-0.1c0.5,0,0.9-0.1,1.4-0.1l0.4,0c0.8-0.1,1.5-0.1,2.3-0.2c0.4,0,0.7-0.1,1.1-0.1l0.5-0.1
			c0.8-0.1,1.6-0.2,2.4-0.3c0.3-0.1,0.7-0.1,1-0.2l0.4-0.1c0.8-0.1,1.7-0.3,2.5-0.5c0.3-0.1,0.5-0.1,0.8-0.2l0.5-0.1
			c0.9-0.2,1.8-0.4,2.7-0.6c0.2-0.1,0.4-0.1,0.6-0.2l0.5-0.1c0.9-0.3,1.9-0.5,2.8-0.8l1-0.3c0.9-0.3,1.9-0.6,2.9-1l0.8-0.3
			c1.2-0.4,2.1-0.8,3-1.2l0.6-0.3c1.1-0.5,2.2-0.9,3.1-1.4l0.5-0.2c1.2-0.6,2.2-1.1,3.2-1.6l0.4-0.2c1.1-0.6,2.2-1.2,3.2-1.8
			l0.4-0.2c1.1-0.6,2.1-1.3,3.1-2l0.3-0.2c1.1-0.7,2.1-1.4,3.1-2.2l0.3-0.2c1-0.8,2-1.5,2.9-2.3l0.4-0.4c1-0.8,1.9-1.5,2.7-2.3
			c0.6-0.6,1.3-1.1,1.9-1.7c0.5-0.4,0.9-0.8,1.3-1.2l0.9-0.9c23-23,31.3-55.8,21.6-85.7c-3.3-9.3-8.3-18-14.9-26
			c-14.5-17.4-32-32.8-50.5-49c-5.8-5.1-11.8-10.4-17.8-15.8c-6,5.4-11.9,10.6-17.8,15.8c-18.5,16.3-36,31.6-50.5,49
			c-6.6,8-11.7,16.7-14.9,26c-9.7,29.8-1.4,62.7,21.6,85.7l0.9,0.9c0.4,0.4,0.8,0.8,1.2,1.2c0.6,0.6,1.3,1.2,1.9,1.7
			c0.9,0.8,1.8,1.5,2.7,2.3l0.5,0.4c0.9,0.7,1.9,1.5,2.9,2.2l0.4,0.3c1,0.7,2,1.4,3.1,2.1l0.2,0.2c1.1,0.7,2.1,1.4,3.2,2l0.3,0.2
			c1,0.6,2,1.2,3.2,1.8l0.4,0.2c0.9,0.5,2,1,3.1,1.6l0.5,0.2c0.9,0.4,1.9,0.9,3.1,1.4l0.6,0.3c0.9,0.4,1.9,0.8,3,1.2l0.8,0.3
			c1,0.4,1.9,0.7,2.9,1l0.9,0.3c0.9,0.3,1.8,0.5,2.8,0.8l0.5,0.1c0.2,0.1,0.4,0.1,0.6,0.2c0.9,0.2,1.8,0.4,2.7,0.6l0.5,0.1
			c0.3,0.1,0.5,0.1,0.8,0.2c0.9,0.2,1.7,0.3,2.5,0.5l0.5,0.1c0.3,0.1,0.6,0.1,0.9,0.2c0.8,0.1,1.6,0.2,2.4,0.3l0.5,0.1
			c0.4,0,0.7,0.1,1.1,0.1c0.7,0.1,1.5,0.2,2.3,0.2l0.4,0c0.4,0,0.9,0.1,1.3,0.1c0.7,0,1.3,0.1,1.9,0.1l0.6,0c0.5,0,1,0,1.5,0.1
			C1552.5,884.8,1553.1,884.8,1553.7,884.8z M1501.5,544.6c1.5,2.8,3.3,5.4,5.3,7.9c10.2,12.6,22.7,23.9,37.2,37
			c3.2,2.9,6.6,5.9,10,9.1c3.4-3.1,6.7-6.1,10-9.1c14.5-13.1,27-24.4,37.2-37c2-2.4,3.8-5.1,5.3-7.9c8.7-16.6,7.6-37.3-2.9-54.1
			c-2.9-4.4-6.4-8.5-10.4-12.2c-10.7-9.8-24.6-15.2-39.1-15.2c-14.5,0-28.4,5.4-39.1,15.2v0c-4,3.7-7.5,7.8-10.4,12.2
			C1493.9,507.3,1492.8,528,1501.5,544.6z"/>
	</g>
	<g id="Loca8-outline" class="st1">
		<path class="st8" d="M1350.5,746.8c-21.3-61-78.9-104.5-147.2-104.5c-78.3,0-143.2,57.9-154.2,133.2c-2.7,10.1-4,46.9-9.4,60.7
			c-6.7,22.9-25,36.9-45.1,45.7c-44.8,19.8-97.8-1.2-118-47.2s0-99.4,44.8-119.2c20.4-8.8,43-9.4,64.3-2.1
			c16.8,5.8,35.4-3,41.1-19.8s-2.7-32.9-19.8-41.1c-36.9-12.5-76.5-11.3-111.6,4.3c-24.1,10.7-44.2,26.8-59.1,46.3
			c-28.3-37.2-73.1-61-123.7-61c-85.9,0-155.7,69.8-155.7,155.7c0,0.9,0,1.5,0,2.4c-0.3,8.2-0.9,17.1-3,25
			c-6.7,24.1-27.1,40.2-49.1,49.7c-48.8,21.3-106.1-1.5-128-51.5c-4.9-11-7.9-22.6-9.1-34.1l-0.3-2.1V526.1
			c0-9.8-3.4-17.7-10.4-24.4c-7-6.4-14.9-9.8-23.8-9.8c-10.4,0-18.9,3.4-25.6,9.8c-6.7,6.4-10.1,14.6-10.1,24.4V787
			c0.3,92,75.3,166.7,167.3,166.7c0.3,0,1.5,0,3.4,0v-0.3c21.6-0.3,43.6-4.6,64.9-14c22.6-10.1,42.7-25,58.5-43.6
			c28.6,35.1,72.2,57.6,121,57.6c50.3,0,94.8-23.8,123.4-60.7c42.4,56.1,118.3,78.3,184.7,49.1c23.8-10.7,44.5-27.1,60-47.9
			c28.6,36.3,72.8,59.7,122.5,59.7c22.2,0,43.6-4.9,62.8-13.1c9.1-3.7,18-8.2,26.2-14c4.3,15.5,18.3,26.2,34.1,26.2
			c19.2,0,34.7-14.6,34.7-32.3V801.4v-1.8C1360.6,780.9,1356.9,763.3,1350.5,746.8z M711.7,887.3c-49.7,0-89.9-40.2-89.9-89.9
			s40.2-89.9,89.9-89.9s89.9,40.5,89.9,90.2C801.6,847.4,761.4,887.3,711.7,887.3z M1202.4,887.6c-3,0-5.8-0.3-8.8-0.3
			c-19.2-2.4-36.6-10.4-49.1-23.2c-16.5-16.8-25.6-39.3-25.3-62.8c0-25.6,9.4-47.5,25-62.8c15.2-16.5,37.5-25,61-25
			c22.9-0.3,44.8,8.5,61,25c16.8,16.5,25.9,39.3,25.6,62.8c0.3,1.5,0.3,3,0,4.6c0,1.2,0,2.7-0.3,4
			C1285.6,854.1,1248.1,887.6,1202.4,887.6z"/>
		<path id="_x38__1_" class="st8" d="M1676.9,666.9c-14.3-14-29.3-25.6-45.4-32c14-16.2,23.5-38.1,23.5-61.6
			c0-51.8-42.7-94.5-94.5-94.5c-51.8,0-94.5,42.7-94.5,94.5c0,23.8,8.2,44.5,22.6,61.6c-17.1,8.2-32,18.6-46.3,32.9
			c-32,32-49.1,71.9-49.1,118s16.2,85,49.1,118c32,32,71.6,49.1,118,49.1c46.3,0,85-16.2,118-49.1c32-32,49.1-71.6,49.7-117.6
			C1726.9,739.8,1708.9,698.9,1676.9,666.9z M1559.3,534.7c21.3,0,38.7,17.4,38.7,38.7s-17.4,38.7-38.7,38.7
			c-21.6,0-39-17.4-38.7-38.7C1520.6,552,1537.9,534.7,1559.3,534.7z M1632.1,857.7c-39.6,39.6-103.9,39.6-143.6,0
			s-39.6-103.9,0-143.6s103.9-39.6,143.6,0S1671.7,818.1,1632.1,857.7z"/>
	</g>
	<path id="_x38__2_" class="st9" d="M1557.8,951.9c-72.5,0-136.8-51.2-152.7-122.2c-6.1-28-3.7-55.5,8.2-84.1
		c13.4-32.6,31.4-62.2,45.4-84.1c19.5-30.5,40.8-59.4,59.7-84.4c-13.4-18.6-28.3-39.6-39.3-63.7c-5.2-11.6-9.8-21.9-11.6-34.1
		c-3.7-26.2,3.4-50,20.7-70.7c14.9-17.7,34.4-28,57.9-31.1c4.3-0.6,8.2-0.9,12.5-0.9c45.1,0,83.2,32,90.5,76.2
		c2.1,13.4,0.9,27.1-4,41.1c-7.9,22.9-20.7,42.7-30.8,57.3c-6.1,8.8-12.2,17.4-18.6,25.9l11.3,14.6c16.8,21.9,33.8,44.5,50.3,67.4
		c19.8,27.1,34.4,52.7,44.5,78.3c9.8,24.4,13.4,44.8,12.2,64.9c-4,59.1-32.3,103.6-85,131.7c-17.1,9.1-36,14.6-56.7,16.5
		c-3.4,0.3-6.4,0.6-9.8,0.6l-4.6,0.3h-0.3L1557.8,951.9L1557.8,951.9z M1549.2,639.8c-11.3,15.5-22.9,32-33.8,48.2
		c-18.6,27.7-33.2,53.9-44.8,80.8c-8.8,21-9.1,41.5-0.6,62.2c14.6,36,49.1,59.1,87.8,59.1l0,0c4,0,8.2-0.3,12.2-0.6
		c30.8-3.7,54.3-19.5,70.4-46.6c11-18.3,14.6-38.1,11-58.8c-3.7-21.9-14-41.1-22.6-55.5c-17.1-28.6-37.5-55.5-58.5-82.9
		c-4.3-5.5-8.5-11.3-13.1-17.1C1554.4,632.2,1552,636.2,1549.2,639.8z M1557.8,439c-2.1,0-4.3,0.3-6.4,0.6
		c-12.8,3-21.6,12.5-23.5,24.7c-0.9,5.2,1.2,10.7,4,16.8c6.4,15.8,15.5,29.9,25.6,44.8c11.6-16.2,22.6-32.3,29.3-50
		c2.1-5.8,2.4-11.3,0.6-16.8C1583.1,447.5,1570.9,439,1557.8,439z"/>
	<path id="_x38_-outline" class="st10" d="M1558.4,387.8c39.9,0,73.5,29,80.2,67.4c2.1,12.2,0.6,24.1-3.4,35.7
		c-6.7,19.8-17.7,37.5-29.6,54.6c-6.7,9.8-13.7,19.5-20.7,29c-1.8,2.4-1.5,4,0,6.4c21.3,28.3,43,56.4,64,85
		c17.4,23.8,32.6,48.8,43.3,76.2c7.6,19.5,12.8,39.3,11.6,60.3c-3.7,55.8-30.2,96.6-79.5,123.1c-16.5,8.8-34.1,13.4-52.4,15.2
		c-4.6,0.3-9.1,0.6-13.7,0.9c0,0,0,0-0.3,0c-70.7,0-128-50.6-142-113.7c-6.1-26.8-2.7-52.4,7.6-77.7c11.9-29,27.7-56.1,44.5-82.6
		c18.9-29.9,39.9-58.2,61.3-86.6c2.1-2.7,2.1-4.3,0-7c-15.2-20.4-29.6-41.5-40.5-64.6c-4.6-10.1-9.1-20.1-10.7-31.1
		c-3.4-23.5,3-44.2,18.3-62.2c13.4-15.8,30.8-24.7,51.2-27.4C1551.1,388.1,1554.7,387.8,1558.4,387.8 M1557.1,544.4
		c2.7-3.7,5.2-7.3,7.6-10.7c12.2-17.1,24.1-34.4,31.7-53.9c3-7.9,3.4-15.8,0.6-24.1c-5.5-16.5-22.2-27.4-39.3-27.4
		c-3,0-5.8,0.3-8.8,0.9c-17.1,4-29.3,16.8-31.7,33.5c-1.2,7.9,1.5,15.2,4.6,22.6c7.6,18.9,18.9,35.7,30.5,52.1
		C1553.8,539.5,1555.3,541.7,1557.1,544.4 M1557.8,900.7c4.6,0,8.8-0.3,13.4-0.9c34.4-4.3,60.7-21.9,78.3-51.8
		c12.2-20.4,16.5-42.7,12.5-66.1c-3.7-21.3-13.1-40.5-24.1-59.1c-17.7-29.6-38.4-57-59.4-84.1c-7-9.1-14.3-18.6-21.6-28
		c-0.9,0.9-1.5,1.5-1.8,2.1c-16.2,22.9-32.9,45.7-48.8,68.9c-17.7,26.2-33.2,53.3-45.7,82.6c-10.1,23.5-10.4,46.9-0.6,70.4
		C1476.7,875.4,1515.1,900.7,1557.8,900.7 M1558.4,366.4L1558.4,366.4c-4.6,0-9.1,0.3-13.7,0.9c-26.2,3.4-47.9,15.2-64.6,34.7
		c-19.8,23.2-27.4,49.7-23.2,78.9c1.8,13.4,7,25.3,12.5,36.9c10.4,21.9,23.5,41.8,36,59.1c-17.7,23.5-37.5,50.6-55.5,78.6
		c-14.3,22.2-32.3,52.4-46.3,85.9c-12.5,30.2-15.2,60.7-8.5,90.5c16.8,75.6,85.3,130.4,163.1,130.4h0.3h0.6h0.6
		c1.5,0,2.7-0.3,4.3-0.3c3.4-0.3,6.4-0.3,9.8-0.6c21.9-1.8,42.7-7.6,61-17.7c56.1-29.9,86.6-77.4,90.8-140.5
		c1.5-21.6-2.7-43.6-13.1-69.5c-10.7-26.5-25.6-53-46-80.8c-16.8-22.9-33.8-45.4-50.6-67.4c-2.1-2.7-4.3-5.5-6.4-8.2
		c4.6-6.4,9.4-13.1,14-19.8c10.7-15.2,23.8-35.7,32-59.7c5.5-15.5,6.7-31.1,4.3-46.3C1651.3,402.4,1608.7,366.4,1558.4,366.4
		L1558.4,366.4z M1557.5,506.9c-6.1-9.8-11.9-19.5-15.8-29.6c-1.8-4.3-3.7-8.8-3.4-11.3c1.2-7.9,7-14,15.5-15.8
		c1.2-0.3,2.7-0.3,4-0.3c8.2,0,16.5,5.5,18.9,12.8c1.2,3,0.9,6.1-0.3,9.4C1572.1,484.1,1565.1,495.7,1557.5,506.9L1557.5,506.9z
		 M1557.8,879.4c-34.7,0-64.6-20.1-78-52.4c-7.3-18-7.3-35.7,0.6-53.9c11.3-26.2,25.6-51.8,43.9-78.9c10.7-15.8,22.2-32,33.2-47.5
		c1.5,1.8,2.7,3.7,4.3,5.5c21,27.1,41.1,53.6,57.9,82c12.2,20.1,18.6,36.3,21.3,51.8c3,18,0,35.4-9.8,51.5
		c-14.6,24.4-35.1,38.1-62.8,41.5C1565.1,879.1,1561.4,879.4,1557.8,879.4L1557.8,879.4z"/>
	<path class="st9" d="M1557.1,634c-0.9,0.9-1.5,1.5-1.8,2.1c-16.2,22.9-32.9,45.7-48.8,68.9c-17.7,26.2-33.2,53.3-45.7,82.6
		c-10.1,23.5-10.4,46.9-0.6,70.4c18.3,44.8,63.1,70.7,111.2,64.9c34.4-4.3,60.7-21.9,78.3-51.8c12.2-20.4,16.5-42.7,12.5-66.1
		c-3.7-21.3-13.1-40.5-24.1-59.1c-17.7-29.6-38.4-57-59.4-84.1C1571.8,652.9,1564.8,643.8,1557.1,634z"/>
	<path class="st9" d="M1557.5,542.9c2.7-3.7,5.2-7.3,7.6-10.7c12.2-17.1,24.1-34.4,31.7-53.9c3-7.9,3.4-15.8,0.6-24.1
		c-6.4-19.2-28-31.1-48.2-26.5c-17.1,4-29.3,16.8-31.7,33.5c-1.2,7.9,1.5,15.2,4.6,22.6c7.6,18.9,18.9,35.7,30.5,52.1
		C1554.1,538,1555.6,540.2,1557.5,542.9z"/>
</g>
<g id="Layer_2">
	<line class="st11" x1="1519.7" y1="566.8" x2="1661.1" y2="680.4"/>
	<line class="st11" x1="1591.1" y1="566.8" x2="1449.7" y2="680.4"/>
</g>
</svg>
