<?xml version="1.0" encoding="utf-8"?>
<!-- Generator: Adobe Illustrator 23.1.1, SVG Export Plug-In . SVG Version: 6.00 Build 0)  -->
<svg version="1.1" xmlns="http://www.w3.org/2000/svg" xmlns:xlink="http://www.w3.org/1999/xlink" x="0px" y="0px"
	 viewBox="0 0 2000 1500" style="enable-background:new 0 0 2000 1500;" xml:space="preserve">
<style type="text/css">
	.st0{display:none;}
	.st1{display:inline;fill:#06121E;}
	.st2{display:inline;fill:#FFFFFF;}
	.st3{display:inline;fill:#FFFFFF;stroke:#000000;stroke-miterlimit:10;}
	.st4{fill:#FFFFFF;}
	.st5{fill:#06121E;stroke:#000000;stroke-miterlimit:10;}
	.st6{display:inline;stroke:#000000;stroke-width:10;stroke-linecap:round;stroke-linejoin:round;stroke-miterlimit:10;}
	
		.st7{display:inline;fill:#06121E;stroke:#000000;stroke-width:10;stroke-linecap:round;stroke-linejoin:round;stroke-miterlimit:10;}
	.st8{display:inline;fill:none;stroke:#000000;stroke-width:16;stroke-linecap:round;stroke-linejoin:round;stroke-miterlimit:10;}
	.st9{display:inline;}
	.st10{display:inline;fill:#19A378;}
	.st11{display:inline;opacity:0.6;fill:#005289;}
	.st12{fill:#19A378;}
	.st13{display:inline;fill:none;stroke:#19A378;stroke-width:68;stroke-linecap:round;stroke-linejoin:round;stroke-miterlimit:10;}
</style>
<g id="Light" class="st0">
	<rect id="BG" y="-73.4" class="st1" width="2000" height="1646.8"/>
	<path id="_x38__9_" class="st2" d="M1678.7,746.6c-1.5-2.9-3.2-5.6-5-8.3c-2.1-3.2-4.3-6.3-6.6-9.3c-0.7-0.9-1.3-1.7-2-2.6
		c-1.2-1.5-2.5-3-4-4.7c-8.3-9.6-17.1-18.1-26.4-26.3c-11.6-10.7-24.5-22-37-32.7c4.4-3.9,8.8-7.8,12.9-11.6
		c6.9-6,13.3-12.3,19.4-19.3c1.1-1.2,2-2.3,2.9-3.4c0.5-0.6,1-1.3,1.5-1.9c1.7-2.2,3.3-4.4,4.8-6.8c1.3-2,2.5-4,3.7-6.1
		c7.3-13.9,10.9-29.4,10.9-45c0-19.4-5.5-39.1-16.4-56.6c-5.4-8.3-12-16-19.5-22.9c-20.1-18.4-46.2-28.5-73.4-28.5
		c-0.1,0-0.1,0-0.2,0c-0.1,0-0.1,0-0.2,0c-27.2,0-53.3,10.1-73.4,28.5c-7.5,6.9-14.1,14.6-19.5,22.9c-10.9,17.5-16.4,37.2-16.4,56.6
		c0,15.7,3.6,31.1,10.9,45c1.1,2.1,2.4,4.1,3.7,6.1c1.5,2.4,3.1,4.6,4.8,6.8c0.5,0.6,1,1.3,1.5,1.9c0.9,1.1,1.9,2.2,2.9,3.4
		c6.1,7,12.5,13.3,19.4,19.3c4.1,3.8,8.5,7.7,12.9,11.6c-12.4,10.6-25.4,21.9-37,32.7c-9.3,8.2-18.2,16.7-26.4,26.3
		c-1.4,1.6-2.8,3.2-4,4.7c-0.7,0.9-1.3,1.7-2,2.6c-2.3,3-4.5,6-6.6,9.3c-1.8,2.7-3.5,5.5-5,8.4c-9.9,19-14.9,40-14.9,61.4
		c0,26.4,7.4,53.3,22.3,77.1c7.4,11.3,16.4,21.8,26.6,31.2c27.4,25.1,62.9,38.9,100.1,38.9c0.1,0,0.2,0,0.2,0c0.1,0,0.2,0,0.2,0
		c37.1,0,72.7-13.8,100.1-38.9c10.2-9.5,19.2-20,26.6-31.2c14.9-23.8,22.4-50.7,22.3-77.1C1693.5,786.6,1688.6,765.5,1678.7,746.6z
		 M1519.8,596.9c-2.5-2.2-4.9-4.5-7.2-7.2c-0.4-0.4-0.8-0.9-1.1-1.3c-0.2-0.2-0.4-0.5-0.5-0.7c-0.6-0.8-1.2-1.6-1.8-2.5
		c-0.5-0.7-0.9-1.5-1.4-2.3c-2.7-5.2-4-10.9-4-16.7c0-7.2,2-14.5,6.1-20.9c2-3.1,4.4-5.9,7.2-8.5c7.4-6.8,17.1-10.6,27.2-10.6
		c0,0,0,0,0.1,0c0,0,0,0,0.1,0c10.1,0,19.7,3.8,27.2,10.6c2.8,2.6,5.2,5.4,7.2,8.5c4,6.5,6.1,13.8,6.1,20.9c0,5.8-1.3,11.5-4,16.6
		c-0.4,0.8-0.9,1.5-1.4,2.3c-0.6,0.9-1.2,1.7-1.8,2.5c-0.2,0.2-0.4,0.5-0.5,0.7c-0.3,0.4-0.7,0.8-1.1,1.3c-2.2,2.6-4.6,4.9-7.2,7.2
		c-9.4,8.7-22.3,19-24.4,21c0,0-0.1-0.1-0.1-0.1c0,0,0,0,0,0c0,0,0,0,0,0c0,0-0.1,0.1-0.1,0.1C1542.1,616,1529.2,605.7,1519.8,596.9
		z M1611.9,850.7c-4,6-8.7,11.6-14.2,16.6c-14.6,13.4-33.5,20.7-53.3,20.7c0,0-0.1,0-0.1,0c0,0-0.1,0-0.1,0
		c-19.8,0-38.7-7.4-53.3-20.7c-5.5-5-10.2-10.6-14.2-16.6c-7.9-12.7-11.9-27-11.9-41c0-11.4,2.6-22.6,7.9-32.7
		c0.8-1.5,1.7-3,2.7-4.5c1.1-1.7,2.3-3.4,3.5-4.9c0.4-0.5,0.7-0.9,1.1-1.4c0.6-0.8,1.4-1.6,2.1-2.5c4.4-5.1,9.1-9.7,14.1-14
		c18.9-17.5,44.7-38.1,48.1-41.3c0,0,0,0,0,0c0,0,0,0,0,0c3.4,3.2,29.3,23.8,48.1,41.3c5,4.4,9.7,8.9,14.1,14
		c0.8,0.9,1.5,1.7,2.1,2.5c0.4,0.5,0.7,0.9,1.1,1.4c1.2,1.6,2.4,3.2,3.5,4.9c0.9,1.4,1.8,2.9,2.7,4.4c5.3,10.1,7.9,21.3,7.9,32.7
		C1623.8,823.7,1619.8,838,1611.9,850.7z"/>
	<path id="Loca_3_" class="st3" d="M1207.6,640.1c-87.3,0-158,70.7-158,158c0,1,0,2,0,3c0,0.3,0,0.6-0.1,0.9
		c-1.5,33.6-21.3,63.4-51.8,77.6c-21.8,10.2-46.2,11.3-68.8,3.1c-22.6-8.2-40.7-24.7-50.9-46.4c-10.2-21.8-11.3-46.2-3.1-68.8
		c8.2-22.6,24.7-40.7,46.4-50.9c24.4-11.4,52.4-11.4,76.8,0.2c17,8,37.2,0.8,45.3-16.2c8-17,0.8-37.2-16.2-45.3
		c-42.8-20.3-91.9-20.4-134.8-0.3c-23,10.8-42.6,26.5-57.7,46c-28.9-37-74-60.8-124.6-60.8c-87.2,0-157.9,70.6-158,157.8h0
		c0,49.7-40.3,90-90,90c-47.7,0-86.7-37.1-89.8-83.9V565.6c0-18.8-15.2-34-34-34h0c-18.8,0-34,15.2-34,34c0,0-0.2,229.7-0.2,232.3
		c0,87.3,70.7,158,158,158c50.2,0,95-23.4,123.9-60c28.9,36.7,73.8,60.2,124.1,60.2c50.7,0,95.7-23.8,124.7-60.9
		c18.1,23.3,42.5,41.1,70.9,51.4c17.6,6.4,35.7,9.5,53.9,9.5c22.9,0,45.6-5,66.9-15c22.7-10.6,42-26.2,57-45.1
		c28.9,36.6,73.7,60,123.9,60c33.6,0,64.7-10.5,90.3-28.4c2.8,15.9,16.7,28,33.5,28c18.8,0,34-15.2,34-34V806.5
		c0.1-2.8,0.2-5.6,0.2-8.4C1365.6,710.8,1294.9,640.1,1207.6,640.1z M710.3,888.2c-49.7,0-90-40.3-90-90s40.3-90,90-90
		s90,40.3,90,90S760,888.2,710.3,888.2z M1207.6,887.9c-49.6,0-89.8-40.2-89.8-89.8c0-49.6,40.2-89.8,89.8-89.8
		c49.6,0,89.8,40.2,89.8,89.8C1297.4,847.7,1257.2,887.9,1207.6,887.9z"/>
</g>
<g id="Final">
	<path id="_x38__5_" d="M1678.7,746.6c-1.5-2.9-3.2-5.6-5-8.3c-2.1-3.2-4.3-6.3-6.6-9.3c-0.7-0.9-1.3-1.7-2-2.6
		c-1.2-1.5-2.5-3-4-4.7c-8.3-9.6-17.1-18.1-26.4-26.3c-11.6-10.7-24.5-22-37-32.7c4.4-3.9,8.8-7.8,12.9-11.6
		c6.9-6,13.3-12.3,19.4-19.3c1.1-1.2,2-2.3,2.9-3.4c0.5-0.6,1-1.3,1.5-1.9c1.7-2.2,3.3-4.4,4.8-6.8c1.3-2,2.5-4,3.7-6.1
		c7.3-13.9,10.9-29.4,10.9-45c0-19.4-5.5-39.1-16.4-56.6c-5.4-8.3-12-16-19.5-22.9c-20.1-18.4-46.2-28.5-73.4-28.5
		c-0.1,0-0.1,0-0.2,0c-0.1,0-0.1,0-0.2,0c-27.2,0-53.3,10.1-73.4,28.5c-7.5,6.9-14.1,14.6-19.5,22.9c-10.9,17.5-16.4,37.2-16.4,56.6
		c0,15.7,3.6,31.1,10.9,45c1.1,2.1,2.4,4.1,3.7,6.1c1.5,2.4,3.1,4.6,4.8,6.8c0.5,0.6,1,1.3,1.5,1.9c0.9,1.1,1.9,2.2,2.9,3.4
		c6.1,7,12.5,13.3,19.4,19.3c4.1,3.8,8.5,7.7,12.9,11.6c-12.4,10.6-25.4,21.9-37,32.7c-9.3,8.2-18.2,16.7-26.4,26.3
		c-1.4,1.6-2.8,3.2-4,4.7c-0.7,0.9-1.3,1.7-2,2.6c-2.3,3-4.5,6-6.6,9.3c-1.8,2.7-3.5,5.5-5,8.4c-9.9,19-14.9,40-14.9,61.4
		c0,26.4,7.4,53.3,22.3,77.1c7.4,11.3,16.4,21.8,26.6,31.2c27.4,25.1,62.9,38.9,100.1,38.9c0.1,0,0.2,0,0.2,0c0.1,0,0.2,0,0.2,0
		c37.1,0,72.7-13.8,100.1-38.9c10.2-9.5,19.2-20,26.6-31.2c14.9-23.8,22.4-50.7,22.3-77.1C1693.5,786.6,1688.6,765.5,1678.7,746.6z
		 M1519.8,596.9c-2.5-2.2-4.9-4.5-7.2-7.2c-0.4-0.4-0.8-0.9-1.1-1.3c-0.2-0.2-0.4-0.5-0.5-0.7c-0.6-0.8-1.2-1.6-1.8-2.5
		c-0.5-0.7-0.9-1.5-1.4-2.3c-2.7-5.2-4-10.9-4-16.7c0-7.2,2-14.5,6.1-20.9c2-3.1,4.4-5.9,7.2-8.5c7.4-6.8,17.1-10.6,27.2-10.6
		c0,0,0,0,0.1,0c0,0,0,0,0.1,0c10.1,0,19.7,3.8,27.2,10.6c2.8,2.6,5.2,5.4,7.2,8.5c4,6.5,6.1,13.8,6.1,20.9c0,5.8-1.3,11.5-4,16.6
		c-0.4,0.8-0.9,1.5-1.4,2.3c-0.6,0.9-1.2,1.7-1.8,2.5c-0.2,0.2-0.4,0.5-0.5,0.7c-0.3,0.4-0.7,0.8-1.1,1.3c-2.2,2.6-4.6,4.9-7.2,7.2
		c-9.4,8.7-22.3,19-24.4,21c0,0-0.1-0.1-0.1-0.1c0,0,0,0,0,0c0,0,0,0,0,0c0,0-0.1,0.1-0.1,0.1C1542.1,616,1529.2,605.7,1519.8,596.9
		z M1611.9,850.7c-4,6-8.7,11.6-14.2,16.6c-14.6,13.4-33.5,20.7-53.3,20.7c0,0-0.1,0-0.1,0c0,0-0.1,0-0.1,0
		c-19.8,0-38.7-7.4-53.3-20.7c-5.5-5-10.2-10.6-14.2-16.6c-7.9-12.7-11.9-27-11.9-41c0-11.4,2.6-22.6,7.9-32.7
		c0.8-1.5,1.7-3,2.7-4.5c1.1-1.7,2.3-3.4,3.5-4.9c0.4-0.5,0.7-0.9,1.1-1.4c0.6-0.8,1.4-1.6,2.1-2.5c4.4-5.1,9.1-9.7,14.1-14
		c18.9-17.5,44.7-38.1,48.1-41.3c0,0,0,0,0,0c0,0,0,0,0,0c3.4,3.2,29.3,23.8,48.1,41.3c5,4.4,9.7,8.9,14.1,14
		c0.8,0.9,1.5,1.7,2.1,2.5c0.4,0.5,0.7,0.9,1.1,1.4c1.2,1.6,2.4,3.2,3.5,4.9c0.9,1.4,1.8,2.9,2.7,4.4c5.3,10.1,7.9,21.3,7.9,32.7
		C1623.8,823.7,1619.8,838,1611.9,850.7z"/>
	<ellipse class="st0" cx="533.2" cy="832.8" rx="38.9" ry="46.2"/>
	<ellipse class="st4" cx="443" cy="784.8" rx="108.8" ry="113.6"/>
	<path id="Loca" class="st5" d="M1207.6,640.1c-87.3,0-158,70.7-158,158c0,1,0,2,0,3c0,0.3,0,0.6-0.1,0.9
		c-1.5,33.6-21.3,63.4-51.8,77.6c-21.8,10.2-46.2,11.3-68.8,3.1c-22.6-8.2-40.7-24.7-50.9-46.4c-10.2-21.8-11.3-46.2-3.1-68.8
		c8.2-22.6,24.7-40.7,46.4-50.9c24.4-11.4,52.4-11.4,76.8,0.2c17,8,37.2,0.8,45.3-16.2c8-17,0.8-37.2-16.2-45.3
		c-42.8-20.3-91.9-20.4-134.8-0.3c-23,10.8-42.6,26.5-57.7,46c-28.9-37-74-60.8-124.6-60.8c-87.2,0-157.9,70.6-158,157.8h0
		c0,49.7-40.3,90-90,90c-47.7,0-86.7-37.1-89.8-83.9V565.6c0-18.8-15.2-34-34-34h0c-18.8,0-34,15.2-34,34c0,0-0.2,229.7-0.2,232.3
		c0,87.3,70.7,158,158,158c50.2,0,95-23.4,123.9-60c28.9,36.7,73.8,60.2,124.1,60.2c50.7,0,95.7-23.8,124.7-60.9
		c18.1,23.3,42.5,41.1,70.9,51.4c17.6,6.4,35.7,9.5,53.9,9.5c22.9,0,45.6-5,66.9-15c22.7-10.6,42-26.2,57-45.1
		c28.9,36.6,73.7,60,123.9,60c33.6,0,64.7-10.5,90.3-28.4c2.8,15.9,16.7,28,33.5,28c18.8,0,34-15.2,34-34V806.5
		c0.1-2.8,0.2-5.6,0.2-8.4C1365.6,710.8,1294.9,640.1,1207.6,640.1z M710.3,888.2c-49.7,0-90-40.3-90-90s40.3-90,90-90
		s90,40.3,90,90S760,888.2,710.3,888.2z M1207.6,887.9c-49.6,0-89.8-40.2-89.8-89.8c0-49.6,40.2-89.8,89.8-89.8
		c49.6,0,89.8,40.2,89.8,89.8C1297.4,847.7,1257.2,887.9,1207.6,887.9z"/>
</g>
<g id="Final_copy" class="st0">
	<path id="_x38__8_" class="st6" d="M1678.7,746.6c-1.5-2.9-3.2-5.6-5-8.3c-2.1-3.2-4.3-6.3-6.6-9.3c-0.7-0.9-1.3-1.7-2-2.6
		c-1.2-1.5-2.5-3-4-4.7c-8.3-9.6-17.1-18.1-26.4-26.3c-11.6-10.7-24.5-22-37-32.7c4.4-3.9,8.8-7.8,12.9-11.6
		c6.9-6,13.3-12.3,19.4-19.3c1.1-1.2,2-2.3,2.9-3.4c0.5-0.6,1-1.3,1.5-1.9c1.7-2.2,3.3-4.4,4.8-6.8c1.3-2,2.5-4,3.7-6.1
		c7.3-13.9,10.9-29.4,10.9-45c0-19.4-5.5-39.1-16.4-56.6c-5.4-8.3-12-16-19.5-22.9c-20.1-18.4-46.2-28.5-73.4-28.5
		c-0.1,0-0.1,0-0.2,0c-0.1,0-0.1,0-0.2,0c-27.2,0-53.3,10.1-73.4,28.5c-7.5,6.9-14.1,14.6-19.5,22.9c-10.9,17.5-16.4,37.2-16.4,56.6
		c0,15.7,3.6,31.1,10.9,45c1.1,2.1,2.4,4.1,3.7,6.1c1.5,2.4,3.1,4.6,4.8,6.8c0.5,0.6,1,1.3,1.5,1.9c0.9,1.1,1.9,2.2,2.9,3.4
		c6.1,7,12.5,13.3,19.4,19.3c4.1,3.8,8.5,7.7,12.9,11.6c-12.4,10.6-25.4,21.9-37,32.7c-9.3,8.2-18.2,16.7-26.4,26.3
		c-1.4,1.6-2.8,3.2-4,4.7c-0.7,0.9-1.3,1.7-2,2.6c-2.3,3-4.5,6-6.6,9.3c-1.8,2.7-3.5,5.5-5,8.4c-9.9,19-14.9,40-14.9,61.4
		c0,26.4,7.4,53.3,22.3,77.1c7.4,11.3,16.4,21.8,26.6,31.2c27.4,25.1,62.9,38.9,100.1,38.9c0.1,0,0.2,0,0.2,0c0.1,0,0.2,0,0.2,0
		c37.1,0,72.7-13.8,100.1-38.9c10.2-9.5,19.2-20,26.6-31.2c14.9-23.8,22.4-50.7,22.3-77.1C1693.5,786.6,1688.6,765.5,1678.7,746.6z
		 M1519.8,596.9c-2.5-2.2-4.9-4.5-7.2-7.2c-0.4-0.4-0.8-0.9-1.1-1.3c-0.2-0.2-0.4-0.5-0.5-0.7c-0.6-0.8-1.2-1.6-1.8-2.5
		c-0.5-0.7-0.9-1.5-1.4-2.3c-2.7-5.2-4-10.9-4-16.7c0-7.2,2-14.5,6.1-20.9c2-3.1,4.4-5.9,7.2-8.5c7.4-6.8,17.1-10.6,27.2-10.6
		c0,0,0,0,0.1,0c0,0,0,0,0.1,0c10.1,0,19.7,3.8,27.2,10.6c2.8,2.6,5.2,5.4,7.2,8.5c4,6.5,6.1,13.8,6.1,20.9c0,5.8-1.3,11.5-4,16.6
		c-0.4,0.8-0.9,1.5-1.4,2.3c-0.6,0.9-1.2,1.7-1.8,2.5c-0.2,0.2-0.4,0.5-0.5,0.7c-0.3,0.4-0.7,0.8-1.1,1.3c-2.2,2.6-4.6,4.9-7.2,7.2
		c-9.4,8.7-22.3,19-24.4,21c0,0-0.1-0.1-0.1-0.1c0,0,0,0,0,0c0,0,0,0,0,0c0,0-0.1,0.1-0.1,0.1C1542.1,616,1529.2,605.7,1519.8,596.9
		z M1611.9,850.7c-4,6-8.7,11.6-14.2,16.6c-14.6,13.4-33.5,20.7-53.3,20.7c0,0-0.1,0-0.1,0c0,0-0.1,0-0.1,0
		c-19.8,0-38.7-7.4-53.3-20.7c-5.5-5-10.2-10.6-14.2-16.6c-7.9-12.7-11.9-27-11.9-41c0-11.4,2.6-22.6,7.9-32.7
		c0.8-1.5,1.7-3,2.7-4.5c1.1-1.7,2.3-3.4,3.5-4.9c0.4-0.5,0.7-0.9,1.1-1.4c0.6-0.8,1.4-1.6,2.1-2.5c4.4-5.1,9.1-9.7,14.1-14
		c18.9-17.5,44.7-38.1,48.1-41.3c0,0,0,0,0,0c0,0,0,0,0,0c3.4,3.2,29.3,23.8,48.1,41.3c5,4.4,9.7,8.9,14.1,14
		c0.8,0.9,1.5,1.7,2.1,2.5c0.4,0.5,0.7,0.9,1.1,1.4c1.2,1.6,2.4,3.2,3.5,4.9c0.9,1.4,1.8,2.9,2.7,4.4c5.3,10.1,7.9,21.3,7.9,32.7
		C1623.8,823.7,1619.8,838,1611.9,850.7z"/>
	<path id="Loca_2_" class="st7" d="M1207.6,640.1c-87.3,0-158,70.7-158,158c0,1,0,2,0,3c0,0.3,0,0.6-0.1,0.9
		c-1.5,33.6-21.3,63.4-51.8,77.6c-21.8,10.2-46.2,11.3-68.8,3.1c-22.6-8.2-40.7-24.7-50.9-46.4c-10.2-21.8-11.3-46.2-3.1-68.8
		c8.2-22.6,24.7-40.7,46.4-50.9c24.4-11.4,52.4-11.4,76.8,0.2c17,8,37.2,0.8,45.3-16.2c8-17,0.8-37.2-16.2-45.3
		c-42.8-20.3-91.9-20.4-134.8-0.3c-23,10.8-42.6,26.5-57.7,46c-28.9-37-74-60.8-124.6-60.8c-87.2,0-157.9,70.6-158,157.8h0
		c0,49.7-40.3,90-90,90c-47.7,0-86.7-37.1-89.8-83.9V565.6c0-18.8-15.2-34-34-34h0c-18.8,0-34,15.2-34,34c0,0-0.2,229.7-0.2,232.3
		c0,87.3,70.7,158,158,158c50.2,0,95-23.4,123.9-60c28.9,36.7,73.8,60.2,124.1,60.2c50.7,0,95.7-23.8,124.7-60.9
		c18.1,23.3,42.5,41.1,70.9,51.4c17.6,6.4,35.7,9.5,53.9,9.5c22.9,0,45.6-5,66.9-15c22.7-10.6,42-26.2,57-45.1
		c28.9,36.6,73.7,60,123.9,60c33.6,0,64.7-10.5,90.3-28.4c2.8,15.9,16.7,28,33.5,28c18.8,0,34-15.2,34-34V806.5
		c0.1-2.8,0.2-5.6,0.2-8.4C1365.6,710.8,1294.9,640.1,1207.6,640.1z M710.3,888.2c-49.7,0-90-40.3-90-90s40.3-90,90-90
		s90,40.3,90,90S760,888.2,710.3,888.2z M1207.6,887.9c-49.6,0-89.8-40.2-89.8-89.8c0-49.6,40.2-89.8,89.8-89.8
		c49.6,0,89.8,40.2,89.8,89.8C1297.4,847.7,1257.2,887.9,1207.6,887.9z"/>
</g>
<g id="Outlined" class="st0">
	<path id="_x38__7_" class="st8" d="M1678.7,746.6c-1.5-2.9-3.2-5.6-5-8.3c-2.1-3.2-4.3-6.3-6.6-9.3c-0.7-0.9-1.3-1.7-2-2.6
		c-1.2-1.5-2.5-3-4-4.7c-8.3-9.6-17.1-18.1-26.4-26.3c-11.6-10.7-24.5-22-37-32.7c4.4-3.9,8.8-7.8,12.9-11.6
		c6.9-6,13.3-12.3,19.4-19.3c1.1-1.2,2-2.3,2.9-3.4c0.5-0.6,1-1.3,1.5-1.9c1.7-2.2,3.3-4.4,4.8-6.8c1.3-2,2.5-4,3.7-6.1
		c7.3-13.9,10.9-29.4,10.9-45c0-19.4-5.5-39.1-16.4-56.6c-5.4-8.3-12-16-19.5-22.9c-20.1-18.4-46.2-28.5-73.4-28.5
		c-0.1,0-0.1,0-0.2,0c-0.1,0-0.1,0-0.2,0c-27.2,0-53.3,10.1-73.4,28.5c-7.5,6.9-14.1,14.6-19.5,22.9c-10.9,17.5-16.4,37.2-16.4,56.6
		c0,15.7,3.6,31.1,10.9,45c1.1,2.1,2.4,4.1,3.7,6.1c1.5,2.4,3.1,4.6,4.8,6.8c0.5,0.6,1,1.3,1.5,1.9c0.9,1.1,1.9,2.2,2.9,3.4
		c6.1,7,12.5,13.3,19.4,19.3c4.1,3.8,8.5,7.7,12.9,11.6c-12.4,10.6-25.4,21.9-37,32.7c-9.3,8.2-18.2,16.7-26.4,26.3
		c-1.4,1.6-2.8,3.2-4,4.7c-0.7,0.9-1.3,1.7-2,2.6c-2.3,3-4.5,6-6.6,9.3c-1.8,2.7-3.5,5.5-5,8.4c-9.9,19-14.9,40-14.9,61.4
		c0,26.4,7.4,53.3,22.3,77.1c7.4,11.3,16.4,21.8,26.6,31.2c27.4,25.1,62.9,38.9,100.1,38.9c0.1,0,0.2,0,0.2,0c0.1,0,0.2,0,0.2,0
		c37.1,0,72.7-13.8,100.1-38.9c10.2-9.5,19.2-20,26.6-31.2c14.9-23.8,22.4-50.7,22.3-77.1C1693.5,786.6,1688.6,765.5,1678.7,746.6z
		 M1519.8,596.9c-2.5-2.2-4.9-4.5-7.2-7.2c-0.4-0.4-0.8-0.9-1.1-1.3c-0.2-0.2-0.4-0.5-0.5-0.7c-0.6-0.8-1.2-1.6-1.8-2.5
		c-0.5-0.7-0.9-1.5-1.4-2.3c-2.7-5.2-4-10.9-4-16.7c0-7.2,2-14.5,6.1-20.9c2-3.1,4.4-5.9,7.2-8.5c7.4-6.8,17.1-10.6,27.2-10.6
		c0,0,0,0,0.1,0c0,0,0,0,0.1,0c10.1,0,19.7,3.8,27.2,10.6c2.8,2.6,5.2,5.4,7.2,8.5c4,6.5,6.1,13.8,6.1,20.9c0,5.8-1.3,11.5-4,16.6
		c-0.4,0.8-0.9,1.5-1.4,2.3c-0.6,0.9-1.2,1.7-1.8,2.5c-0.2,0.2-0.4,0.5-0.5,0.7c-0.3,0.4-0.7,0.8-1.1,1.3c-2.2,2.6-4.6,4.9-7.2,7.2
		c-9.4,8.7-22.3,19-24.4,21c0,0-0.1-0.1-0.1-0.1c0,0,0,0,0,0c0,0,0,0,0,0c0,0-0.1,0.1-0.1,0.1C1542.1,616,1529.2,605.7,1519.8,596.9
		z M1611.9,850.7c-4,6-8.7,11.6-14.2,16.6c-14.6,13.4-33.5,20.7-53.3,20.7c0,0-0.1,0-0.1,0c0,0-0.1,0-0.1,0
		c-19.8,0-38.7-7.4-53.3-20.7c-5.5-5-10.2-10.6-14.2-16.6c-7.9-12.7-11.9-27-11.9-41c0-11.4,2.6-22.6,7.9-32.7
		c0.8-1.5,1.7-3,2.7-4.5c1.1-1.7,2.3-3.4,3.5-4.9c0.4-0.5,0.7-0.9,1.1-1.4c0.6-0.8,1.4-1.6,2.1-2.5c4.4-5.1,9.1-9.7,14.1-14
		c18.9-17.5,44.7-38.1,48.1-41.3c0,0,0,0,0,0c0,0,0,0,0,0c3.4,3.2,29.3,23.8,48.1,41.3c5,4.4,9.7,8.9,14.1,14
		c0.8,0.9,1.5,1.7,2.1,2.5c0.4,0.5,0.7,0.9,1.1,1.4c1.2,1.6,2.4,3.2,3.5,4.9c0.9,1.4,1.8,2.9,2.7,4.4c5.3,10.1,7.9,21.3,7.9,32.7
		C1623.8,823.7,1619.8,838,1611.9,850.7z"/>
	<path id="Loca_1_" class="st8" d="M1207.6,640.1c-87.3,0-158,70.7-158,158c0,1,0,2,0,3c0,0.3,0,0.6-0.1,0.9
		c-1.5,33.6-21.3,63.4-51.8,77.6c-21.8,10.2-46.2,11.3-68.8,3.1c-22.6-8.2-40.7-24.7-50.9-46.4c-10.2-21.8-11.3-46.2-3.1-68.8
		c8.2-22.6,24.7-40.7,46.4-50.9c24.4-11.4,52.4-11.4,76.8,0.2c17,8,37.2,0.8,45.3-16.2c8-17,0.8-37.2-16.2-45.3
		c-42.8-20.3-91.9-20.4-134.8-0.3c-23,10.8-42.6,26.5-57.7,46c-28.9-37-74-60.8-124.6-60.8c-87.2,0-157.9,70.6-158,157.8h0
		c0,49.7-40.3,90-90,90c-47.7,0-86.7-37.1-89.8-83.9V565.6c0-18.8-15.2-34-34-34h0c-18.8,0-34,15.2-34,34c0,0-0.2,229.7-0.2,232.3
		c0,87.3,70.7,158,158,158c50.2,0,95-23.4,123.9-60c28.9,36.7,73.8,60.2,124.1,60.2c50.7,0,95.7-23.8,124.7-60.9
		c18.1,23.3,42.5,41.1,70.9,51.4c17.6,6.4,35.7,9.5,53.9,9.5c22.9,0,45.6-5,66.9-15c22.7-10.6,42-26.2,57-45.1
		c28.9,36.6,73.7,60,123.9,60c33.6,0,64.7-10.5,90.3-28.4c2.8,15.9,16.7,28,33.5,28c18.8,0,34-15.2,34-34V806.5
		c0.1-2.8,0.2-5.6,0.2-8.4C1365.6,710.8,1294.9,640.1,1207.6,640.1z M710.3,888.2c-49.7,0-90-40.3-90-90s40.3-90,90-90
		s90,40.3,90,90S760,888.2,710.3,888.2z M1207.6,887.9c-49.6,0-89.8-40.2-89.8-89.8c0-49.6,40.2-89.8,89.8-89.8
		c49.6,0,89.8,40.2,89.8,89.8C1297.4,847.7,1257.2,887.9,1207.6,887.9z"/>
</g>
<g id="Chars" class="st0">
	<path id="_x38__6_" class="st9" d="M1678.7,746.6c-1.5-2.9-3.2-5.6-5-8.3c-2.1-3.2-4.3-6.3-6.6-9.3c-0.7-0.9-1.3-1.7-2-2.6
		c-1.2-1.5-2.5-3-4-4.7c-8.3-9.6-17.1-18.1-26.4-26.3c-11.6-10.7-24.5-22-37-32.7c4.4-3.9,8.8-7.8,12.9-11.6
		c6.9-6,13.3-12.3,19.4-19.3c1.1-1.2,2-2.3,2.9-3.4c0.5-0.6,1-1.3,1.5-1.9c1.7-2.2,3.3-4.4,4.8-6.8c1.3-2,2.5-4,3.7-6.1
		c7.3-13.9,10.9-29.4,10.9-45c0-19.4-5.5-39.1-16.4-56.6c-5.4-8.3-12-16-19.5-22.9c-20.1-18.4-46.2-28.5-73.4-28.5
		c-0.1,0-0.1,0-0.2,0c-0.1,0-0.1,0-0.2,0c-27.2,0-53.3,10.1-73.4,28.5c-7.5,6.9-14.1,14.6-19.5,22.9c-10.9,17.5-16.4,37.2-16.4,56.6
		c0,15.7,3.6,31.1,10.9,45c1.1,2.1,2.4,4.1,3.7,6.1c1.5,2.4,3.1,4.6,4.8,6.8c0.5,0.6,1,1.3,1.5,1.9c0.9,1.1,1.9,2.2,2.9,3.4
		c6.1,7,12.5,13.3,19.4,19.3c4.1,3.8,8.5,7.7,12.9,11.6c-12.4,10.6-25.4,21.9-37,32.7c-9.3,8.2-18.2,16.7-26.4,26.3
		c-1.4,1.6-2.8,3.2-4,4.7c-0.7,0.9-1.3,1.7-2,2.6c-2.3,3-4.5,6-6.6,9.3c-1.8,2.7-3.5,5.5-5,8.4c-9.9,19-14.9,40-14.9,61.4
		c0,26.4,7.4,53.3,22.3,77.1c7.4,11.3,16.4,21.8,26.6,31.2c27.4,25.1,62.9,38.9,100.1,38.9c0.1,0,0.2,0,0.2,0c0.1,0,0.2,0,0.2,0
		c37.1,0,72.7-13.8,100.1-38.9c10.2-9.5,19.2-20,26.6-31.2c14.9-23.8,22.4-50.7,22.3-77.1C1693.5,786.6,1688.6,765.5,1678.7,746.6z
		 M1519.8,596.9c-2.5-2.2-4.9-4.5-7.2-7.2c-0.4-0.4-0.8-0.9-1.1-1.3c-0.2-0.2-0.4-0.5-0.5-0.7c-0.6-0.8-1.2-1.6-1.8-2.5
		c-0.5-0.7-0.9-1.5-1.4-2.3c-2.7-5.2-4-10.9-4-16.7c0-7.2,2-14.5,6.1-20.9c2-3.1,4.4-5.9,7.2-8.5c7.4-6.8,17.1-10.6,27.2-10.6
		c0,0,0,0,0.1,0c0,0,0,0,0.1,0c10.1,0,19.7,3.8,27.2,10.6c2.8,2.6,5.2,5.4,7.2,8.5c4,6.5,6.1,13.8,6.1,20.9c0,5.8-1.3,11.5-4,16.6
		c-0.4,0.8-0.9,1.5-1.4,2.3c-0.6,0.9-1.2,1.7-1.8,2.5c-0.2,0.2-0.4,0.5-0.5,0.7c-0.3,0.4-0.7,0.8-1.1,1.3c-2.2,2.6-4.6,4.9-7.2,7.2
		c-9.4,8.7-22.3,19-24.4,21c0,0-0.1-0.1-0.1-0.1c0,0,0,0,0,0c0,0,0,0,0,0c0,0-0.1,0.1-0.1,0.1C1542.1,616,1529.2,605.7,1519.8,596.9
		z M1611.9,850.7c-4,6-8.7,11.6-14.2,16.6c-14.6,13.4-33.5,20.7-53.3,20.7c0,0-0.1,0-0.1,0c0,0-0.1,0-0.1,0
		c-19.8,0-38.7-7.4-53.3-20.7c-5.5-5-10.2-10.6-14.2-16.6c-7.9-12.7-11.9-27-11.9-41c0-11.4,2.6-22.6,7.9-32.7
		c0.8-1.5,1.7-3,2.7-4.5c1.1-1.7,2.3-3.4,3.5-4.9c0.4-0.5,0.7-0.9,1.1-1.4c0.6-0.8,1.4-1.6,2.1-2.5c4.4-5.1,9.1-9.7,14.1-14
		c18.9-17.5,44.7-38.1,48.1-41.3c0,0,0,0,0,0c0,0,0,0,0,0c3.4,3.2,29.3,23.8,48.1,41.3c5,4.4,9.7,8.9,14.1,14
		c0.8,0.9,1.5,1.7,2.1,2.5c0.4,0.5,0.7,0.9,1.1,1.4c1.2,1.6,2.4,3.2,3.5,4.9c0.9,1.4,1.8,2.9,2.7,4.4c5.3,10.1,7.9,21.3,7.9,32.7
		C1623.8,823.7,1619.8,838,1611.9,850.7z"/>
	<path id="a_7_" class="st1" d="M1365.6,798.1c0-87.3-70.7-158-158-158s-158,70.7-158,158s70.7,158,158,158
		c33.6,0,64.7-10.5,90.3-28.4c2.8,15.9,16.7,28,33.5,28l0,0c18.8,0,34-15.2,34-34V806.5C1365.6,803.7,1365.6,800.9,1365.6,798.1z
		 M1207.6,887.9c-49.6,0-89.8-40.2-89.8-89.8c0-49.6,40.2-89.8,89.8-89.8c49.6,0,89.8,40.2,89.8,89.8
		C1297.4,847.7,1257.2,887.9,1207.6,887.9z"/>
	<path id="c_4_" class="st1" d="M959.8,956.2c-18.1,0-36.3-3.2-53.9-9.5c-39.7-14.4-71.4-43.3-89.3-81.5
		c-17.9-38.2-19.9-81.1-5.5-120.8c14.4-39.7,43.3-71.4,81.5-89.3c42.9-20.1,92-20,134.8,0.3c17,8,24.2,28.3,16.2,45.3
		c-8,17-28.3,24.2-45.3,16.2c-24.4-11.6-52.4-11.6-76.8-0.2c-21.8,10.2-38.3,28.3-46.4,50.9c-8.2,22.6-7.1,47,3.1,68.8
		c10.2,21.8,28.3,38.3,50.9,46.4c22.6,8.2,47,7.1,68.8-3.1c30.4-14.3,50.3-44,51.8-77.6c0.8-18.8,16.7-33.3,35.5-32.5
		c18.8,0.8,33.3,16.7,32.5,35.5c-2.6,59-37.4,111.2-90.8,136.2C1005.4,951.1,982.6,956.2,959.8,956.2z"/>
	<path id="o_3_" class="st1" d="M710.3,640.2c-87.3,0-158,70.7-158,158s70.7,158,158,158s158-70.7,158-158S797.6,640.2,710.3,640.2z
		 M710.3,888.2c-49.7,0-90-40.3-90-90s40.3-90,90-90s90,40.3,90,90S760,888.2,710.3,888.2z"/>
	<path id="L_1_" class="st1" d="M552.3,797.9c0,49.7-40.3,90-90,90c-47.7,0-86.7-37.1-89.8-83.9V565.6c0-18.8-15.2-34-34-34h0
		c-18.8,0-34,15.2-34,34c0,0-0.2,229.7-0.2,232.3c0,87.3,70.7,158,158,158s158-70.7,158-158H552.3z"/>
</g>
<g id="OOOO_-Source" class="st0">
	<g id="_x38_" class="st9">
		<path id="_x38__2_" d="M1642.9,613.5c-1.1,2.1-2.4,4.1-3.7,6.1c-1.5,2.4-3.1,4.6-4.8,6.8c-0.5,0.6-1,1.3-1.5,1.9
			c-0.9,1.1-1.9,2.2-2.9,3.4c-6.1,7-12.5,13.3-19.4,19.3c-26,24.1-61.6,52.5-66.3,56.9c0,0,0,0,0,0c0,0,0,0,0,0
			c-4.7-4.4-40.3-32.8-66.3-56.9c-6.9-6-13.3-12.3-19.4-19.3c-1.1-1.2-2-2.3-2.9-3.4c-0.5-0.6-1-1.3-1.5-1.9
			c-1.7-2.2-3.3-4.4-4.8-6.8c-1.3-2-2.5-4-3.7-6.1c-7.3-13.9-10.9-29.4-10.9-45c0-19.4,5.5-39.1,16.4-56.6c5.4-8.3,12-16,19.5-22.9
			c20.1-18.4,46.2-28.5,73.4-28.5c0.1,0,0.1,0,0.2,0c0.1,0,0.1,0,0.2,0c27.2,0,53.3,10.1,73.4,28.5c7.5,6.9,14.1,14.6,19.5,22.9
			c10.9,17.5,16.4,37.2,16.4,56.6C1653.8,584.1,1650.2,599.6,1642.9,613.5z"/>
		<path id="_x38__1_" class="st4" d="M1580.8,583c-0.4,0.8-0.9,1.5-1.4,2.3c-0.6,0.9-1.2,1.7-1.8,2.5c-0.2,0.2-0.4,0.5-0.5,0.7
			c-0.3,0.4-0.7,0.8-1.1,1.3c-2.2,2.6-4.6,4.9-7.2,7.2c-9.6,8.9-22.8,19.4-24.5,21.1c0,0,0,0,0,0c0,0,0,0,0,0
			c-1.7-1.6-14.9-12.1-24.5-21.1c-2.5-2.2-4.9-4.5-7.2-7.2c-0.4-0.4-0.8-0.9-1.1-1.3c-0.2-0.2-0.4-0.5-0.5-0.7
			c-0.6-0.8-1.2-1.6-1.8-2.5c-0.5-0.7-0.9-1.5-1.4-2.3c-2.7-5.2-4-10.9-4-16.7c0-7.2,2-14.5,6.1-20.9c2-3.1,4.4-5.9,7.2-8.5
			c7.4-6.8,17.1-10.6,27.2-10.6c0,0,0,0,0.1,0c0,0,0,0,0.1,0c10.1,0,19.7,3.8,27.2,10.6c2.8,2.6,5.2,5.4,7.2,8.5
			c4,6.5,6.1,13.8,6.1,20.9C1584.8,572.2,1583.5,577.9,1580.8,583z"/>
		<path id="_x38__4_" d="M1678.7,746.6c-1.5-2.9-3.2-5.6-5-8.3c-2.1-3.2-4.3-6.3-6.6-9.3c-0.7-0.9-1.3-1.7-2-2.6
			c-1.2-1.5-2.5-3-4-4.7c-8.3-9.6-17.1-18.1-26.4-26.3c-35.5-32.8-84-71.5-90.4-77.6c0,0,0,0,0,0c0,0,0,0,0,0
			c-6.4,6-54.9,44.7-90.4,77.6c-9.3,8.2-18.2,16.7-26.4,26.3c-1.4,1.6-2.8,3.2-4,4.7c-0.7,0.9-1.3,1.7-2,2.6c-2.3,3-4.5,6-6.6,9.3
			c-1.8,2.7-3.5,5.5-5,8.4c-9.9,19-14.9,40-14.9,61.4c0,26.4,7.4,53.3,22.3,77.1c7.4,11.3,16.4,21.8,26.6,31.2
			c27.4,25.1,62.9,38.9,100.1,38.9c0.1,0,0.2,0,0.2,0c0.1,0,0.2,0,0.2,0c37.1,0,72.7-13.8,100.1-38.9c10.2-9.5,19.2-20,26.6-31.2
			c14.9-23.8,22.4-50.7,22.3-77.1C1693.5,786.6,1688.6,765.5,1678.7,746.6z"/>
		<path id="_x38__3_" class="st4" d="M1615.9,777c-0.8-1.5-1.7-3-2.7-4.4c-1.1-1.7-2.3-3.4-3.5-4.9c-0.4-0.5-0.7-0.9-1.1-1.4
			c-0.6-0.8-1.3-1.6-2.1-2.5c-4.4-5.1-9.1-9.7-14.1-14c-18.9-17.5-44.7-38.1-48.1-41.3c0,0,0,0,0,0c0,0,0,0,0,0
			c-3.4,3.2-29.3,23.8-48.1,41.3c-5,4.4-9.7,8.9-14.1,14c-0.8,0.9-1.5,1.7-2.1,2.5c-0.4,0.5-0.7,0.9-1.1,1.4
			c-1.2,1.6-2.4,3.2-3.5,4.9c-0.9,1.4-1.8,2.9-2.7,4.5c-5.3,10.1-7.9,21.3-7.9,32.7c0,14.1,4,28.4,11.9,41c4,6,8.7,11.6,14.2,16.6
			c14.6,13.4,33.5,20.7,53.3,20.7c0,0,0.1,0,0.1,0c0,0,0.1,0,0.1,0c19.8,0,38.7-7.4,53.3-20.7c5.5-5,10.2-10.6,14.2-16.6
			c7.9-12.7,11.9-27,11.9-41.1C1623.8,798.3,1621.2,787.1,1615.9,777z"/>
	</g>
	<path id="a_4_" class="st10" d="M1330.4,955.8L1330.4,955.8c-18.8,0-34-15.2-34-34V800.6c0-18.8,15.2-34,34-34l0,0
		c18.8,0,34,15.2,34,34v121.2C1364.4,940.6,1349.1,955.8,1330.4,955.8z"/>
	<circle id="A_1_" class="st10" cx="1206.6" cy="798.2" r="158"/>
	<circle id="a_6_" class="st11" cx="1206.6" cy="798.2" r="89.8"/>
	<ellipse id="C" class="st10" cx="958.3" cy="798.1" rx="158" ry="157.7"/>
	<circle id="c_1_" class="st11" cx="958.3" cy="798.1" r="90"/>
	<path class="st12" d="M1047.6,811.1c-3.5,24.7-17.2,47.2-38.5,61.7c-41.1,27.9-97.1,17.2-125-23.9c-13.5-19.9-18.5-43.8-14-67.5
		c4.5-23.6,17.9-44.1,37.8-57.6c22.3-15.1,50-19.5,75.9-11.9c1.6,0.5,3.2,0.8,4.7,1c16.5,2.4,32.6-7.7,37.4-24.1
		c5.3-18-5.1-36.9-23.1-42.2c-45.5-13.3-94-5.6-133.1,20.9c-34.9,23.7-58.5,59.6-66.4,101.1c-7.9,41.5,0.8,83.5,24.5,118.4
		c26,38.2,65.8,61.4,108.3,67.6c37.6,5.4,77.3-2.6,111.2-25.6c37.4-25.4,61.5-64.8,67.6-108.3L1047.6,811.1z"/>
	<circle id="C-ellipse" class="st13" cx="958.3" cy="798.1" r="124"/>
	<path id="C_-_x3C_Compound_Path_x3E_" class="st10" d="M958.3,956.1c-87.1,0-158-70.9-158-158s70.9-158,158-158s158,70.9,158,158
		S1045.5,956.1,958.3,956.1z M958.3,708.1c-49.6,0-90,40.4-90,90s40.4,90,90,90c49.6,0,90-40.4,90-90S1008,708.1,958.3,708.1z"/>
	<circle id="O_1_" class="st10" cx="710.3" cy="798.2" r="158"/>
	<circle id="o_2_" class="st11" cx="710.3" cy="798.2" r="90"/>
	<circle id="O-L_1_" class="st10" cx="462.3" cy="798.2" r="158"/>
	<circle id="o-L_1_" class="st11" cx="462.3" cy="798.2" r="90"/>
	<circle class="st11" cx="1544.3" cy="921.8" r="34"/>
	<circle class="st11" cx="1469" cy="566.3" r="34"/>
	<circle class="st11" cx="1619.8" cy="566.3" r="34"/>
	<circle class="st11" cx="1614" cy="722.9" r="34"/>
	<circle class="st11" cx="1475" cy="722.9" r="34"/>
	<circle class="st11" cx="1085" cy="821.1" r="34"/>
	<circle class="st11" cx="1085" cy="752.9" r="34"/>
</g>
</svg>
