<?xml version="1.0" encoding="utf-8"?>
<!-- Generator: Adobe Illustrator 23.1.1, SVG Export Plug-In . SVG Version: 6.00 Build 0)  -->
<svg version="1.1" xmlns="http://www.w3.org/2000/svg" xmlns:xlink="http://www.w3.org/1999/xlink" x="0px" y="0px"
	 viewBox="0 0 656.2 307.9" style="enable-background:new 0 0 656.2 307.9;" xml:space="preserve">
<style type="text/css">
	.st0{fill:#06121E;}
	.st1{fill:#FFFFFF;}
	.st2{display:none;}
	.st3{display:none;fill:none;stroke:#050505;stroke-width:21;stroke-linecap:round;stroke-miterlimit:10;}
	.st4{display:none;fill:#31A2DB;fill-opacity:0.54;}
	.st5{display:none;opacity:0.69;}
	.st6{display:inline;fill:#A7A7A7;}
	.st7{display:inline;fill:#12A8D6;}
</style>
<g id="Layer_1">
	
		<image style="display:none;overflow:visible;" width="1000" height="794" xlink:href="infinity-symbol-set-infinite-space-sign-loop-vector-34349293.jpg"  transform="matrix(6.123234e-17 -1 1 6.123234e-17 224.0061 327.1004)">
	</image>
	<rect class="st0" width="656.2" height="307.9"/>
	<path id="_x38_" class="st1" d="M554.2,138.3c-4.7-4.6-9.6-8.4-14.9-10.5c4.6-5.3,7.7-12.5,7.7-20.2c0-17-14-31-31-31s-31,14-31,31
		c0,7.8,2.7,14.6,7.4,20.2c-5.6,2.7-10.5,6.1-15.2,10.8c-10.5,10.5-16.1,23.6-16.1,38.7c0,15.1,5.3,27.9,16.1,38.7
		c10.5,10.5,23.5,16.1,38.7,16.1s27.9-5.3,38.7-16.1c10.5-10.5,16.1-23.5,16.3-38.6C570.6,162.2,564.7,148.8,554.2,138.3z
		 M515.6,94.9c7,0,12.7,5.7,12.7,12.7s-5.7,12.7-12.7,12.7c-7.1,0-12.8-5.7-12.7-12.7C502.9,100.6,508.6,94.9,515.6,94.9z
		 M539.5,200.9c-13,13-34.1,13-47.1,0c-13-13-13-34.1,0-47.1c13-13,34.1-13,47.1,0S552.5,187.9,539.5,200.9z"/>
	<path id="a" class="st2" d="M446.6,182.4v39.1c0,5.8-5.1,10.6-11.4,10.6c-5.2,0-9.8-3.5-11.2-8.6c-20.4,13.4-47.4,10.9-65-6
		c-9.4-9.3-14.6-22-14.6-35.2c-0.1-13.2,5.1-25.9,14.6-35.2c17.4-17.3,44.6-19.9,65-6.2c1.2-5.2,5.9-8.8,11.2-8.8
		c6.2,0,11.4,4.8,11.4,10.8V182.4z M423.8,182.4c0.1-7.7-2.9-15.2-8.4-20.6c-5.3-5.4-12.5-8.3-20-8.2c-7.7,0-15,2.8-20,8.2
		c-5.1,5-8.2,12.2-8.2,20.6c-0.1,7.7,2.9,15.1,8.3,20.6c4.9,5,12.2,7.8,20,7.8c15.3,0.4,27.9-11.7,28.3-26.9
		C423.9,183.4,423.9,182.9,423.8,182.4L423.8,182.4z"/>
	<path class="st2" d="M424,140.8c0,0,0,0.1,0,0.1c-20.4-13.7-47.6-11.1-65,6.2c-9.5,9.3-14.7,22-14.6,35.2
		c0,13.2,5.2,25.9,14.6,35.2c17.6,16.9,44.6,19.4,65,6c1.4,5.1,6,8.6,11.2,8.6c6.3,0,11.4-4.8,11.4-10.6v-39.1v-0.6
		C446.1,164.7,437.3,149.7,424,140.8z M423.8,183.9c-0.4,15.2-13,27.3-28.3,26.9c-7.8,0-15.1-2.8-20-7.8c-5.4-5.5-8.4-12.9-8.3-20.6
		c0-8.4,3.1-15.6,8.2-20.6c5-5.4,12.3-8.2,20-8.2c7.5-0.1,14.7,2.8,20,8.2c5.5,5.4,8.5,12.9,8.4,20.6
		C423.9,182.9,423.9,183.4,423.8,183.9z"/>
	<path id="c" class="st1" d="M334.9,228.5c-25.5,11.2-55.4-0.7-66.7-26.5s0.1-55.9,25.6-67.1c11.5-5.1,24.5-5.5,36.6-1.4
		c5.5,1.9,8.4,8,6.5,13.5c-1.9,5.5-8,8.4-13.5,6.5c-7-2.4-14.4-2.2-21.1,0.7c-14.7,6.5-21.3,24-14.7,39.1c6.6,15.1,24,22,38.7,15.5
		c6.6-2.9,11.9-8.3,14.8-15c2.3-5.4,8.5-7.9,13.9-5.6c5.4,2.3,7.9,8.5,5.6,13.9C355.7,214.1,346.4,223.4,334.9,228.5z"/>
	<path id="o_1_" class="st1" d="M233.8,130.2c-28.2,0-51.1,22.9-51.1,51.1s22.9,51.1,51.1,51.1s51.1-22.9,51.1-51.1
		S262,130.2,233.8,130.2z M233.5,210.7c-16.3,0-29.5-13.2-29.5-29.5s13.2-29.5,29.5-29.5S263,165,263,181.3S249.8,210.7,233.5,210.7
		z"/>
	<path class="st3" d="M436.4,177.5c3.2,20.6,7.5,33.1,15,44.2"/>
	<path class="st1" d="M451.4,232.2c-3.4,0-6.7-1.6-8.7-4.6c-8.4-12.4-13.3-26.4-16.7-48.5c-0.9-5.7,3-11.1,8.7-12
		c5.7-0.9,11.1,3,12,8.7c3,19,6.7,30.2,13.3,39.9c3.3,4.8,2,11.3-2.8,14.6C455.5,231.6,453.5,232.2,451.4,232.2z"/>
	<path id="o_2_" class="st1" d="M395.8,130.2c-28.2,0-51.1,22.9-51.1,51.1s22.9,51.1,51.1,51.1s51.1-22.9,51.1-51.1
		S424,130.2,395.8,130.2z M395.5,210.7c-16.3,0-29.5-13.2-29.5-29.5s13.2-29.5,29.5-29.5S425,165,425,181.3S411.8,210.7,395.5,210.7
		z"/>
	<path d="M178.3,175.5"/>
	<g>
		<path class="st2" d="M121.3,252.8l-32.1-0.1c0,0,0,0.1,0,0.1L121.3,252.8L121.3,252.8z"/>
	</g>
	<rect x="89.2" y="242" class="st2" width="50.6" height="11.5"/>
	<path class="st2" d="M115.2,209.1c-17.4,0-31.5-14-31.7-31.4h0v-65.6c0-3.2-1.1-5.8-3.4-8c-2.3-2.1-4.9-3.2-7.8-3.2
		c-3.4,0-6.2,1.1-8.4,3.2c-2.2,2.1-3.3,4.8-3.3,8v65.6h0c0.1,30.2,24.7,54.7,54.9,54.7c0.6,0,86.8-0.1,86.8-0.1
		c3.3,0,5.9-1.1,8.1-3.5c2.1-2.3,3.3-5,3.3-7.9c0-3.5-2.4-3-4.5-5.2c-2.1-2.2-43.6-6.6-46.9-6.6"/>
	<path class="st2" d="M165.2,208.1c-17.4,0-31.5-14-31.7-31.4h0v-65.6c0-3.2-1.1-5.8-3.4-8c-2.3-2.1-4.9-3.2-7.8-3.2
		c-3.4,0-6.2,1.1-8.4,3.2c-2.2,2.1-3.3,4.8-3.3,8v65.6h0c0.1,30.2,24.7,54.7,54.9,54.7c0.6,0,16.8-0.1,16.8-0.1
		c3.3,0,5.9-1.1,8.1-3.5c2.1-2.3,3.3-5,3.3-7.9c0-3.5-1.1-6.3-3.3-8.5c-2.1-2.2-4.9-3.3-8.1-3.3"/>
	<path id="L" class="st4" d="M135.4,212.6c-2.1-2-4.8-3-8-3l-44.5,0.1c-1.9,0-3.4-1.6-3.4-3.5v-95.3c0-3.2-1.1-5.8-3.4-8
		c-2.3-2.1-4.9-3.2-7.8-3.2c-3.4,0-6.2,1.1-8.4,3.2c-2.2,2.1-3.3,4.8-3.3,8v109c0,3.2,1.1,5.8,3.2,8c2.1,2.1,4.8,3.2,8,3.2h59.7
		c3.2,0,5.8-1,8-3c2.1-2,3.2-4.6,3.2-7.6C138.6,217.2,137.5,214.6,135.4,212.6z"/>
	<path class="st1" d="M119.5,177.7V92.1c0-3.2-1.1-5.8-3.4-8c-2.3-2.1-4.9-3.2-7.8-3.2c-3.4,0-6.2,1.1-8.4,3.2
		c-2.2,2.1-3.3,4.8-3.3,8v85.6h0c0.1,30.2,24.7,54.7,54.9,54.7c0.1,0,0.5,0,1.1,0v-0.1c7.1-0.1,14.3-1.5,21.3-4.6
		c12.5-5.5,22.6-15.6,28-28.4c2.5-5.9-0.2-12.6-6.1-15.1s-12.6,0.2-15.1,6.1c-3.2,7.3-8.9,13.2-16.1,16.3c-16,7-34.8-0.5-42-16.9
		c-1.6-3.6-2.6-7.4-3-11.2"/>
	<g class="st5">
		<path class="st6" d="M149.5,228.8c-22.2,0-41.8-15.7-46.6-37.3c-1.9-8.5-1-17.1,2.5-25.7c4.1-10,9.5-18.9,13.8-25.6
			c5.9-9.2,12.3-18,18-25.5c-4.1-5.6-8.5-12-11.9-19.2c-1.6-3.5-3-6.7-3.5-10.4c-1.2-8,1-15.3,6.4-21.6c4.6-5.4,10.6-8.6,17.8-9.6
			c1.3-0.2,2.5-0.3,3.8-0.3c13.8,0,25.5,9.8,27.7,23.4c0.7,4.1,0.3,8.3-1.2,12.6c-2.4,7-6.3,13-9.4,17.4c-1.8,2.6-3.6,5.2-5.5,7.7
			l3.3,4.3c5.1,6.7,10.3,13.5,15.3,20.4c6,8.3,10.5,16.1,13.6,23.9c2.9,7.4,4.1,13.7,3.7,19.8c-1.2,18.1-9.9,31.6-26,40.2
			c-5.2,2.8-11,4.5-17.3,5c-1,0.1-2,0.1-2.9,0.2l-1.4,0.1H149.5z M147.2,133.9c-3.4,4.8-6.9,9.7-10.3,14.6
			c-5.7,8.4-10.1,16.4-13.6,24.5c-2.7,6.3-2.8,12.4-0.2,18.7c4.4,10.8,14.8,17.8,26.4,17.8c0,0,0,0,0,0c1.2,0,2.4-0.1,3.7-0.2
			c9.2-1.1,16.4-5.9,21.2-14c3.3-5.5,4.4-11.5,3.3-17.7c-1.1-6.6-4.3-12.4-6.9-16.8c-5.2-8.7-11.4-16.9-17.8-25.2
			c-1.2-1.6-2.5-3.2-3.7-4.9C148.6,131.9,147.9,132.9,147.2,133.9z M149.6,73.1c-0.6,0-1.3,0.1-1.9,0.2c-3.7,0.9-6.4,3.7-6.9,7.3
			c-0.2,1.5,0.4,3.1,1.1,5c1.9,4.7,4.6,8.9,7.5,13.2c3.4-4.8,6.6-9.6,8.6-14.8c0.6-1.7,0.7-3.3,0.1-4.9
			C157,75.6,153.4,73.1,149.6,73.1z"/>
		<path class="st7" d="M149.7,57.3c12.1,0,22.3,8.8,24.3,20.5c0.6,3.7,0.2,7.3-1,10.9c-2.1,6-5.3,11.4-8.9,16.6
			c-2.1,3-4.2,5.9-6.3,8.8c-0.5,0.7-0.5,1.2,0,1.9c6.5,8.6,13,17.1,19.4,25.8c5.3,7.2,9.9,14.8,13.2,23.1c2.3,5.9,3.9,11.9,3.5,18.3
			c-1.1,16.9-9.2,29.4-24.1,37.3c-5,2.7-10.3,4.1-16,4.6c-1.4,0.1-2.8,0.2-4.2,0.3c0,0,0,0-0.1,0c-21.5,0-38.9-15.4-43.1-34.5
			c-1.8-8.1-0.8-15.9,2.3-23.6c3.6-8.8,8.4-17,13.5-25.1c5.8-9,12.1-17.7,18.6-26.2c0.6-0.8,0.6-1.3,0-2.2
			c-4.6-6.2-9-12.6-12.3-19.6c-1.4-3-2.8-6.1-3.3-9.4c-1-7.1,1-13.4,5.6-18.9c4.1-4.8,9.4-7.5,15.5-8.4
			C147.5,57.4,148.7,57.3,149.7,57.3 M149.4,104.8c0.8-1.2,1.6-2.2,2.3-3.2c3.7-5.2,7.3-10.4,9.6-16.4c0.9-2.4,1-4.8,0.2-7.3
			c-1.7-5-6.7-8.3-11.9-8.3c-0.9,0-1.8,0.1-2.7,0.3c-5.1,1.2-8.9,5.1-9.6,10.2c-0.4,2.4,0.5,4.6,1.4,6.8c2.3,5.7,5.8,10.8,9.2,15.8
			C148.3,103.4,148.8,104,149.4,104.8 M149.6,213c1.4,0,2.7-0.1,4.1-0.3c10.5-1.3,18.4-6.7,23.8-15.7c3.7-6.2,5-12.9,3.8-20
			c-1.1-6.5-4-12.3-7.3-18c-5.3-9-11.6-17.3-18-25.5c-2.2-2.8-4.3-5.6-6.6-8.5c-0.3,0.3-0.4,0.4-0.6,0.6c-4.9,7-10,13.9-14.8,20.9
			c-5.4,7.9-10.1,16.2-13.9,25.1c-3.1,7.2-3.1,14.3-0.2,21.4C125,205.4,136.6,213,149.6,213 M149.8,50.3L149.8,50.3
			c-1.4,0-2.8,0.1-4.3,0.3c-8.1,1.1-14.8,4.7-20,10.8c-6,7-8.5,15.5-7.2,24.4c0.6,4.2,2.2,7.8,3.8,11.4c3.1,6.6,7,12.5,10.7,17.7
			c-5.3,7.1-11.2,15.2-16.6,23.6c-4.3,6.8-9.9,15.9-14.1,26.2c-3.8,9.2-4.7,18.6-2.7,27.8c5.2,23.2,26.2,40,50,40l0.1,0l0.2,0l0.2,0
			c0.4,0,0.9-0.1,1.3-0.1c1-0.1,2-0.1,3-0.2c6.8-0.6,13-2.4,18.7-5.4c17.2-9.2,26.6-23.7,27.8-43.1c0.4-6.6-0.8-13.4-4-21.3
			c-3.2-8.1-7.8-16.2-14-24.7c-5.1-6.9-10.3-13.8-15.4-20.5c-0.6-0.7-1.1-1.5-1.7-2.2c1.4-1.9,2.7-3.8,4-5.7
			c3.2-4.6,7.3-10.9,9.8-18.3c1.7-4.8,2.1-9.6,1.3-14.3C178.4,61.4,165.3,50.3,149.8,50.3L149.8,50.3z M149.5,92.5
			c-1.7-2.7-3.2-5.4-4.3-8.2c-0.5-1.2-1-2.6-0.9-3.2c0.3-2.2,1.9-3.9,4.3-4.4c0.4-0.1,0.7-0.1,1.1-0.1c2.3,0,4.6,1.5,5.3,3.6
			c0.3,0.8,0.3,1.6-0.1,2.5C153.5,86.1,151.6,89.3,149.5,92.5L149.5,92.5z M149.6,206c-10.3,0-19.2-6-23.2-15.6
			c-2.2-5.4-2.2-10.6,0.2-16c3.4-7.9,7.7-15.7,13.2-23.9c3.1-4.6,6.5-9.3,9.7-13.8c0.3,0.4,0.6,0.8,0.9,1.1
			c6.3,8.2,12.5,16.3,17.5,24.8c3.6,6.1,5.6,10.9,6.4,15.6c0.9,5.4,0,10.4-2.9,15.3c-4.3,7.3-10.4,11.3-18.6,12.3
			C151.7,206,150.6,206,149.6,206L149.6,206z"/>
	</g>
	<g class="st5">
		<path class="st6" d="M151.1,232.3c-25.5,0-48-18-53.5-42.8c-2.2-9.8-1.2-19.8,2.8-29.7c4.5-11,10.5-20.8,15.2-28.2
			c5.9-9.3,12.4-18.1,18.2-25.8c-4.1-5.7-8.4-12.1-11.8-19.4c-1.8-3.9-3.5-7.7-4.1-12.1c-1.4-9.6,1.2-18.3,7.6-25.9
			c5.5-6.5,12.6-10.3,21.2-11.4c1.5-0.2,3-0.3,4.5-0.3c16.5,0,30.4,11.8,33.2,27.9c0.8,5,0.4,10.1-1.4,15.2
			c-2.7,7.9-7.1,14.6-10.5,19.6c-1.5,2.2-3,4.3-4.6,6.5l2.1,2.8c5.5,7.2,11.1,14.7,16.6,22.1c6.7,9.1,11.6,17.8,15.1,26.5
			c3.4,8.5,4.7,15.7,4.3,22.8c-1.3,20.7-11.4,36.2-29.8,46.1c-6,3.2-12.7,5.2-20,5.8c-1.1,0.1-2.2,0.2-3.3,0.2l-1.6,0.1H151.1z
			 M151,128.6c-3.6,5.1-7.4,10.3-10.9,15.6c-6,8.9-10.7,17.4-14.4,25.9c-2.6,6-2.6,11.8-0.2,17.7c4.4,10.6,14.2,17.2,25.6,17.2
			c0,0,0,0,0,0c1.2,0,2.4-0.1,3.6-0.2c9.1-1.1,15.8-5.6,20.6-13.6c3.1-5.3,4.2-11,3.2-16.9c-0.9-5.1-3.1-10.4-7-17
			c-5.5-9.2-12.1-18-19-26.9C152,129.8,151.5,129.2,151,128.6z M151.1,64c-0.4,0-0.9,0-1.3,0.1c-2.8,0.6-4.7,2.6-5.1,5.2
			c-0.1,0.8,0.5,2.3,1.1,3.7c1.3,3.4,3.2,6.5,5.2,9.7c2.5-3.7,4.7-7.5,6.3-11.5c0.4-1.1,0.5-2.1,0.1-3.1
			C156.6,65.8,153.9,64,151.1,64z"/>
	</g>
	<g class="st5">
		<path class="st6" d="M151.2,225.3c-23.2,0-42.1-16.6-46.7-37.3c-2-8.8-0.9-17.2,2.5-25.5c3.9-9.5,9.1-18.4,14.6-27.1
			c6.2-9.8,13.1-19.1,20.1-28.4c0.7-0.9,0.7-1.4,0-2.3c-5-6.7-9.7-13.6-13.3-21.2c-1.5-3.3-3-6.6-3.5-10.2c-1.1-7.7,1-14.5,6-20.4
			c4.4-5.2,10.1-8.1,16.8-9c14.6-1.9,27.5,8.1,29.9,21.9c0.7,4,0.2,7.9-1.1,11.7c-2.2,6.5-5.8,12.3-9.7,17.9
			c-2.2,3.2-4.5,6.4-6.8,9.5c-0.6,0.8-0.5,1.3,0,2.1c7,9.3,14.1,18.5,21,27.9c5.7,7.8,10.7,16,14.2,25c2.5,6.4,4.2,12.9,3.8,19.8
			c-1.2,18.3-9.9,31.7-26.1,40.4c-5.4,2.9-11.2,4.4-17.2,5C154.2,225.2,152.7,225.3,151.2,225.3z M150.9,116.9
			c-0.3,0.3-0.5,0.5-0.6,0.7c-5.3,7.5-10.8,15-16,22.6c-5.8,8.6-10.9,17.5-15,27.1c-3.3,7.7-3.4,15.4-0.2,23.1
			c6,14.7,20.7,23.2,36.5,21.3c11.3-1.4,19.9-7.2,25.7-17c4-6.7,5.4-14,4.1-21.7c-1.2-7-4.3-13.3-7.9-19.4
			c-5.8-9.7-12.6-18.7-19.5-27.6C155.6,123.1,153.3,120.1,150.9,116.9z M150.9,95.1c0.9-1.2,1.7-2.4,2.5-3.5
			c4-5.6,7.9-11.3,10.4-17.7c1-2.6,1.1-5.2,0.2-7.9c-2.1-6.3-9.2-10.2-15.8-8.7c-5.6,1.3-9.6,5.5-10.4,11c-0.4,2.6,0.5,5,1.5,7.4
			c2.5,6.2,6.2,11.7,10,17.1C149.8,93.5,150.3,94.2,150.9,95.1z"/>
	</g>
	<g class="st5">
		<path class="st6" d="M151.1,228.8c-23.8,0-44.9-16.8-50.1-40.1c-2-9.2-1.2-18.2,2.7-27.6c4.4-10.7,10.3-20.4,14.9-27.6
			c6.4-10,13.4-19.5,19.6-27.7c-4.4-6.1-9.3-13-12.9-20.9c-1.7-3.8-3.2-7.2-3.8-11.2c-1.2-8.6,1.1-16.4,6.8-23.2
			c4.9-5.8,11.3-9.2,19-10.2c1.4-0.2,2.7-0.3,4.1-0.3c14.8,0,27.3,10.5,29.7,25c0.7,4.4,0.3,8.9-1.3,13.5c-2.6,7.5-6.8,14-10.1,18.8
			c-2,2.9-4,5.7-6.1,8.5l3.7,4.8c5.5,7.2,11.1,14.6,16.5,22.1c6.5,8.9,11.3,17.3,14.6,25.7c3.2,8,4.4,14.7,4,21.3
			c-1.3,19.4-10.6,34-27.9,43.2c-5.6,3-11.8,4.8-18.6,5.4c-1.1,0.1-2.1,0.2-3.2,0.2l-1.5,0.1H151.1z M148.3,126.4
			c-3.7,5.1-7.5,10.5-11.1,15.8c-6.1,9.1-10.9,17.7-14.7,26.5c-2.9,6.9-3,13.6-0.2,20.4c4.8,11.8,16.1,19.4,28.8,19.4c0,0,0,0,0,0
			c1.3,0,2.7-0.1,4-0.2c10.1-1.2,17.8-6.4,23.1-15.3c3.6-6,4.8-12.5,3.6-19.3c-1.2-7.2-4.6-13.5-7.4-18.2
			c-5.6-9.4-12.3-18.2-19.2-27.2c-1.4-1.8-2.8-3.7-4.3-5.6C150,123.9,149.2,125.2,148.3,126.4z M151.1,60.5c-0.7,0-1.4,0.1-2.1,0.2
			c-4.2,1-7.1,4.1-7.7,8.1c-0.3,1.7,0.4,3.5,1.3,5.5c2.1,5.2,5.1,9.8,8.4,14.7c3.8-5.3,7.4-10.6,9.6-16.4c0.7-1.9,0.8-3.7,0.2-5.5
			C159.4,63.3,155.4,60.5,151.1,60.5z"/>
		<path class="st7" d="M151.3,43.7c13.1,0,24.1,9.5,26.3,22.1c0.7,4,0.2,7.9-1.1,11.7c-2.2,6.5-5.8,12.3-9.7,17.9
			c-2.2,3.2-4.5,6.4-6.8,9.5c-0.6,0.8-0.5,1.3,0,2.1c7,9.3,14.1,18.5,21,27.9c5.7,7.8,10.7,16,14.2,25c2.5,6.4,4.2,12.9,3.8,19.8
			c-1.2,18.3-9.9,31.7-26.1,40.4c-5.4,2.9-11.2,4.4-17.2,5c-1.5,0.1-3,0.2-4.5,0.3c0,0,0,0-0.1,0c-23.2,0-42-16.6-46.6-37.3
			c-2-8.8-0.9-17.2,2.5-25.5c3.9-9.5,9.1-18.4,14.6-27.1c6.2-9.8,13.1-19.1,20.1-28.4c0.7-0.9,0.7-1.4,0-2.3
			c-5-6.7-9.7-13.6-13.3-21.2c-1.5-3.3-3-6.6-3.5-10.2c-1.1-7.7,1-14.5,6-20.4c4.4-5.2,10.1-8.1,16.8-9
			C148.9,43.8,150.1,43.7,151.3,43.7 M150.9,95.1c0.9-1.2,1.7-2.4,2.5-3.5c4-5.6,7.9-11.3,10.4-17.7c1-2.6,1.1-5.2,0.2-7.9
			c-1.8-5.4-7.3-9-12.9-9c-1,0-1.9,0.1-2.9,0.3c-5.6,1.3-9.6,5.5-10.4,11c-0.4,2.6,0.5,5,1.5,7.4c2.5,6.2,6.2,11.7,10,17.1
			C149.8,93.5,150.3,94.2,150.9,95.1 M151.1,212c1.5,0,2.9-0.1,4.4-0.3c11.3-1.4,19.9-7.2,25.7-17c4-6.7,5.4-14,4.1-21.7
			c-1.2-7-4.3-13.3-7.9-19.4c-5.8-9.7-12.6-18.7-19.5-27.6c-2.3-3-4.7-6.1-7.1-9.2c-0.3,0.3-0.5,0.5-0.6,0.7
			c-5.3,7.5-10.8,15-16,22.6c-5.8,8.6-10.9,17.5-15,27.1c-3.3,7.7-3.4,15.4-0.2,23.1C124.5,203.7,137.1,212,151.1,212 M151.3,36.7
			L151.3,36.7c-1.5,0-3,0.1-4.5,0.3c-8.6,1.1-15.7,5-21.2,11.4c-6.5,7.6-9,16.3-7.6,25.9c0.6,4.4,2.3,8.3,4.1,12.1
			c3.4,7.2,7.7,13.7,11.8,19.4c-5.8,7.7-12.3,16.6-18.2,25.8c-4.7,7.3-10.6,17.2-15.2,28.2c-4.1,9.9-5,19.9-2.8,29.7
			c5.5,24.8,28,42.8,53.5,42.8l0.1,0l0.2,0l0.2,0c0.5,0,0.9-0.1,1.4-0.1c1.1-0.1,2.1-0.1,3.2-0.2c7.2-0.6,14-2.5,20-5.8
			c18.4-9.8,28.4-25.4,29.8-46.1c0.5-7.1-0.9-14.3-4.3-22.8c-3.5-8.7-8.4-17.4-15.1-26.5c-5.5-7.5-11.1-14.9-16.6-22.1
			c-0.7-0.9-1.4-1.8-2.1-2.7c1.5-2.1,3.1-4.3,4.6-6.5c3.5-5,7.8-11.7,10.5-19.6c1.8-5.1,2.2-10.2,1.4-15.2
			C181.8,48.5,167.8,36.7,151.3,36.7L151.3,36.7z M151,82.8c-2-3.2-3.9-6.4-5.2-9.7c-0.6-1.4-1.2-2.9-1.1-3.7
			c0.4-2.6,2.3-4.6,5.1-5.2c0.4-0.1,0.9-0.1,1.3-0.1c2.7,0,5.4,1.8,6.2,4.2c0.4,1,0.3,2-0.1,3.1C155.8,75.3,153.5,79.1,151,82.8
			L151,82.8z M151.1,205c-11.4,0-21.2-6.6-25.6-17.2c-2.4-5.9-2.4-11.7,0.2-17.7c3.7-8.6,8.4-17,14.4-25.9
			c3.5-5.2,7.3-10.5,10.9-15.6c0.5,0.6,0.9,1.2,1.4,1.8c6.9,8.9,13.5,17.6,19,26.9c4,6.6,6.1,11.9,7,17c1,5.9,0,11.6-3.2,16.9
			c-4.8,8-11.5,12.5-20.6,13.6C153.5,204.9,152.3,205,151.1,205L151.1,205z"/>
	</g>
	<g class="st5">
		<path class="st6" d="M150.9,124.5c-0.3,0.3-0.5,0.5-0.6,0.7c-5.3,7.5-10.8,15-16,22.6c-5.8,8.6-10.9,17.5-15,27.1
			c-3.3,7.7-3.4,15.4-0.2,23.1c6,14.7,20.7,23.2,36.5,21.3c11.3-1.4,19.9-7.2,25.7-17c4-6.7,5.4-14,4.1-21.7
			c-1.2-7-4.3-13.3-7.9-19.4c-5.8-9.7-12.6-18.7-19.5-27.6C155.7,130.7,153.4,127.7,150.9,124.5z"/>
	</g>
	<g class="st5">
		<path class="st6" d="M151,94.6c0.9-1.2,1.7-2.4,2.5-3.5c4-5.6,7.9-11.3,10.4-17.7c1-2.6,1.1-5.2,0.2-7.9
			c-2.1-6.3-9.2-10.2-15.8-8.7c-5.6,1.3-9.6,5.5-10.4,11c-0.4,2.6,0.5,5,1.5,7.4c2.5,6.2,6.2,11.7,10,17.1
			C149.9,93,150.4,93.7,151,94.6z"/>
	</g>
	<g class="st5">
		<path class="st6" d="M150.9,124.5c-0.3,0.3-0.5,0.5-0.6,0.7c-5.3,7.5-10.8,15-16,22.6c-5.8,8.6-10.9,17.5-15,27.1
			c-3.3,7.7-3.4,15.4-0.2,23.1c6,14.7,20.7,23.2,36.5,21.3c11.3-1.4,19.9-7.2,25.7-17c4-6.7,5.4-14,4.1-21.7
			c-1.2-7-4.3-13.3-7.9-19.4c-5.8-9.7-12.6-18.7-19.5-27.6C155.7,130.7,153.4,127.7,150.9,124.5z"/>
	</g>
	<g class="st5">
		<path class="st6" d="M151,94.6c0.9-1.2,1.7-2.4,2.5-3.5c4-5.6,7.9-11.3,10.4-17.7c1-2.6,1.1-5.2,0.2-7.9
			c-2.1-6.3-9.2-10.2-15.8-8.7c-5.6,1.3-9.6,5.5-10.4,11c-0.4,2.6,0.5,5,1.5,7.4c2.5,6.2,6.2,11.7,10,17.1
			C149.9,93,150.4,93.7,151,94.6z"/>
	</g>
</g>
<g id="Layer_2">
</g>
</svg>
