<?xml version="1.0" encoding="utf-8"?>
<!-- Generator: Adobe Illustrator 23.1.1, SVG Export Plug-In . SVG Version: 6.00 Build 0)  -->
<svg version="1.1" id="Layer_1" xmlns="http://www.w3.org/2000/svg" xmlns:xlink="http://www.w3.org/1999/xlink" x="0px" y="0px"
	 viewBox="0 0 100 100" enable-background="new 0 0 100 100" xml:space="preserve">
<path id="_x38_" fill="#FFFDFD" d="M73.6,40c-2.9-2.9-6-5.2-9.3-6.5c2.9-3.3,4.8-7.8,4.8-12.6c0-10.6-8.7-19.3-19.3-19.3
	S30.6,10.4,30.6,21c0,4.9,1.7,9.1,4.6,12.6c-3.5,1.7-6.5,3.8-9.5,6.7c-6.5,6.5-10,14.7-10,24.1s3.3,17.3,10,24.1
	c6.5,6.5,14.6,10,24.1,10s17.3-3.3,24.1-10c6.5-6.5,10-14.6,10.1-24C83.8,54.9,80.1,46.6,73.6,40z M49.6,13.1c4.4,0,7.9,3.5,7.9,7.9
	s-3.5,7.9-7.9,7.9s-8-3.5-7.9-7.9C41.7,16.6,45.3,13.1,49.6,13.1z M64.5,79c-8.1,8.1-21.2,8.1-29.3,0s-8.1-21.2,0-29.3
	s21.2-8.1,29.3,0S72.6,70.9,64.5,79z"/>
</svg>
