<?xml version="1.0" encoding="utf-8"?>
<svg version="1.1" id="Layer_1" xmlns="http://www.w3.org/2000/svg" xmlns:xlink="http://www.w3.org/1999/xlink" x="0px" y="0px"
	 viewBox="0 0 200 100" style="enable-background:new 0 0 200 100;" xml:space="preserve">
	<path fill="#FFFFFF"  d="M187.6,45.1c-1.7-1.7-3.6-3.1-5.6-4c1.8-2,2.9-4.7,2.9-7.6c0-6.4-5.2-11.6-11.6-11.6s-11.6,5.2-11.6,11.6
		c0,2.9,1.1,5.5,2.8,7.6c-2.1,1-4,2.3-5.7,4.1c-4,4-6,8.8-6,14.5s2,10.5,6,14.5c4,4,8.8,6,14.5,6s10.5-2,14.5-6c4-4,6-8.8,6-14.5
		S191.6,49.1,187.6,45.1z M173.2,27.8c3.1,0,5.6,2.5,5.6,5.6c0,3.1-2.5,5.6-5.6,5.6s-5.6-2.5-5.6-5.6
		C167.6,30.3,170.1,27.8,173.2,27.8z M182.8,69.2c-2.7,2.7-5.9,4-9.7,4c-3.8,0-7-1.3-9.7-4c-2.7-2.7-4-5.9-4-9.7c0-3.8,1.3-7,4-9.7
		c2.7-2.7,5.9-4.1,9.7-4.1c3.8,0,7,1.3,9.7,4.1c2.7,2.7,4.1,5.9,4.1,9.7C186.9,63.3,185.5,66.5,182.8,69.2z"/>
	<path fill="#FFFFFF" d="M9.6,41.1c0.9,0,1.6,0.3,2.3,1c0.6,0.6,1,1.4,1,2.3v29.3h14.4c0.9,0,1.6,0.3,2.3,1c0.6,0.6,0.9,1.4,0.9,2.3
		c0,0.9-0.3,1.6-0.9,2.3c-0.6,0.6-1.4,1-2.3,1H9.6c-0.9,0-1.6-0.3-2.3-1c-0.6-0.6-1-1.4-1-2.3V44.3c0-0.9,0.3-1.6,1-2.3
		C7.9,41.4,8.7,41.1,9.6,41.1z"/>
	<path fill="#FFFFFF" d="M52.7,80c-5.4,0-10-1.9-13.8-5.7c-3.8-3.8-5.7-8.4-5.7-13.8s1.9-10,5.7-13.8c3.8-3.8,8.4-5.7,13.8-5.7s10,1.9,13.8,5.7
		c3.8,3.8,5.7,8.4,5.7,13.8s-1.9,10-5.7,13.8C62.7,78.1,58.1,80,52.7,80z M52.7,47.4c-3.6,0-6.7,1.3-9.2,3.8
		c-2.6,2.6-3.9,5.7-3.9,9.3c0,3.6,1.3,6.7,3.9,9.2c2.6,2.6,5.6,3.9,9.2,3.9c3.6,0,6.7-1.3,9.3-3.9c2.6-2.6,3.8-5.6,3.8-9.2
		c0-3.6-1.3-6.7-3.8-9.3C59.4,48.7,56.3,47.4,52.7,47.4z"/>
	<path fill="#FFFFFF" d="M97.4,80c-5.3,0-9.9-1.9-13.7-5.7C79.9,70.5,78,66,78,60.6c0-5.4,1.9-9.9,5.7-13.7c3.8-3.8,8.4-5.7,13.7-5.7
		c4.4,0,8.3,1.3,11.8,4c0.7,0.5,1.1,1.2,1.2,2.1c0.1,0.9-0.1,1.7-0.7,2.4c-0.5,0.7-1.2,1.1-2.1,1.2c-0.9,0.1-1.7-0.1-2.4-0.6
		c-2.3-1.8-4.9-2.7-7.9-2.7c-3.6,0-6.6,1.3-9.1,3.8c-2.5,2.5-3.8,5.6-3.8,9.2c0,3.6,1.3,6.6,3.8,9.1c2.5,2.5,5.6,3.8,9.1,3.8
		c3.4,0,6.3-1.1,8.7-3.4c0.7-0.6,1.4-0.9,2.3-0.8c0.9,0,1.6,0.4,2.2,1.1c0.6,0.7,0.9,1.4,0.8,2.3c0,0.9-0.4,1.6-1,2.2
		C106.8,78.3,102.4,80,97.4,80z"/>
	<path fill="#FFFFFF" d="M117.3,79.8c-0.8-0.3-1.4-0.9-1.7-1.7c-0.3-0.8-0.3-1.6,0-2.4l3.4-8.3v0l10-24.1c0-0.1,0.1-0.2,0.1-0.3l0.1-0.1
		c0.1-0.1,0.1-0.1,0.1-0.1c0,0,0-0.1,0.1-0.1c0.1-0.1,0.1-0.1,0.1-0.1c0,0,0-0.1,0.1-0.1c0.1-0.1,0.1-0.1,0.1-0.1c0,0,0.1,0,0.1-0.1
		c0.1-0.1,0.1-0.1,0.1-0.1c0,0,0,0,0.1-0.1c0.1-0.1,0.1-0.1,0.1-0.1l0.1-0.1c0.1-0.1,0.1-0.1,0.2-0.1c0,0,0.1,0,0.2-0.1
		c0.1-0.1,0.1-0.1,0.1-0.1c0,0,0,0,0.1-0.1c0.1,0,0.2,0,0.2-0.1c0,0,0.1,0,0.2-0.1l0.1,0c0,0,0.1,0,0.2,0l0.1,0c0,0,0.1,0,0.2,0
		c0.1,0,0.1,0,0.1,0c0,0,0.1,0,0.2,0h0.2l0.2,0l0.1,0c0,0,0.1,0,0.2,0.1c0.1,0,0.1,0,0.1,0c0.2,0.1,0.4,0.1,0.6,0.2c0,0,0,0,0.1,0.1
		c0.1,0.1,0.1,0.1,0.2,0.1l0.1,0.1c0.1,0.1,0.1,0.1,0.1,0.1c0,0,0.1,0,0.1,0.1c0.1,0.1,0.1,0.1,0.1,0.1c0,0,0,0.1,0.1,0.1
		c0.1,0.1,0.1,0.1,0.1,0.1l0.1,0.1c0.1,0.1,0.1,0.1,0.1,0.1c0,0,0,0.1,0.1,0.1c0.1,0.1,0.1,0.1,0.1,0.1c0.1,0.1,0.1,0.2,0.1,0.3
		l10,24.1v0l3.4,8.3c0.3,0.8,0.3,1.6,0,2.4c-0.3,0.8-0.9,1.4-1.7,1.7c-0.4,0.2-0.8,0.2-1.2,0.2c-1.4,0-2.4-0.7-3-2l-2.6-6.3h-15.7
		l-2.6,6.3c-0.5,1.3-1.5,2-3,2c-0.4,0-0.6,0-0.6,0S117.7,79.9,117.3,79.8z M137.2,65.3L132,52.7l-5.2,12.6H137.2z"/>
</svg>
