<?xml version="1.0" encoding="utf-8"?>
<!-- Generator: Adobe Illustrator 23.1.1, SVG Export Plug-In . SVG Version: 6.00 Build 0)  -->
<svg version="1.1" id="Layer_1" xmlns="http://www.w3.org/2000/svg" xmlns:xlink="http://www.w3.org/1999/xlink" x="0px" y="0px"
	 viewBox="0 0 100 100" enable-background="new 0 0 100 100" xml:space="preserve">
<circle display="none" fill="#FFFFFF" cx="49.6" cy="50" r="50"/>
<path d="M49.6,30c3.8,0,6.8-3,6.8-6.8s-3-6.8-6.8-6.8c-3.7,0-6.8,3-6.8,6.8S45.9,30,49.6,30z"/>
<circle cx="49.9" cy="60.3" r="17.7"/>
<path d="M49.6,0C22,0-0.4,22.4-0.4,50s22.4,50,50,50s50-22.4,50-50S77.2,0,49.6,0z M70.4,80.9c-5.8,5.7-12.5,8.6-20.6,8.6
	s-15.1-3-20.6-8.6c-5.7-5.8-8.6-12.6-8.6-20.6s3-15.1,8.6-20.6c2.6-2.5,5.1-4.3,8.1-5.7c-2.5-3-3.9-6.6-3.9-10.8
	c0-9.1,7.4-16.6,16.4-16.6S66.3,14,66.3,23.1c0,4.1-1.6,8-4.1,10.8c2.8,1.1,5.5,3.1,8,5.6c5.6,5.6,8.7,12.7,8.9,21
	C79,68.4,76,75.4,70.4,80.9z"/>
</svg>
