<?xml version="1.0" encoding="utf-8"?>
<!-- Generator: Adobe Illustrator 23.1.1, SVG Export Plug-In . SVG Version: 6.00 Build 0)  -->
<svg version="1.1" id="Layer_1" xmlns="http://www.w3.org/2000/svg" xmlns:xlink="http://www.w3.org/1999/xlink" x="0px" y="0px"
	 viewBox="0 0 1024 768" enable-background="new 0 0 1024 768" xml:space="preserve">
<g opacity="0.2">
	<path fill="none" stroke="#5E60CE" stroke-width="13" stroke-linecap="round" stroke-linejoin="round" d="M1006,536.2
		c0,16.3-13.1,29.5-29.2,29.5s-29.2-13.2-29.2-29.5"/>
	<path fill="none" stroke="#56CFE1" stroke-width="13" stroke-linecap="round" stroke-linejoin="round" d="M1006,107.3
		c-20.2,0-36.6-16.5-36.6-36.8s16.4-36.8,36.6-36.8"/>
	<path fill="none" stroke="#56CFE1" stroke-width="13" stroke-linecap="round" stroke-linejoin="round" d="M93.5,637
		c0,16.9,13.7,30.5,30.5,30.5s30.5-13.7,30.5-30.5v-34.5"/>
	<path fill="none" stroke="#80FFDB" stroke-width="13" stroke-linecap="round" stroke-linejoin="round" d="M252.7,716
		c-38,0-68.7-30.6-68.7-68.3s30.8-68.3,68.7-68.3h62.9"/>
	<path fill="none" stroke="#5E60CE" stroke-width="13" stroke-linecap="round" stroke-linejoin="round" d="M248.5,669.3
		c-12.6,0-22.9-9.9-22.9-22.1c0-12.2,10.2-22.1,22.9-22.1h24.4"/>
	<path fill="none" stroke="#5500CC" stroke-width="13" stroke-linecap="round" stroke-linejoin="round" d="M1006,263.3v-85.5
		c0-16.7-13.7-30.3-30.5-30.3S945,161,945,177.8V191"/>
	<path fill="none" stroke="#80FFDB" stroke-width="13" stroke-linecap="round" stroke-linejoin="round" d="M535,519.2h-91.2
		c-23,0-41.6,18.5-41.6,41.4s18.6,41.4,41.6,41.4h37.6"/>
	<path fill="none" stroke="#5500CC" stroke-width="13" stroke-linecap="round" stroke-linejoin="round" d="M344.9,717
		c0-16.1,13-29.1,29-29.1h64.8c23.7,0,42.9-19.2,42.9-43"/>
	<path fill="none" stroke="#5500CC" stroke-width="13" stroke-linecap="round" stroke-linejoin="round" d="M391,327.3V360
		c0,39.8,32.2,72,72,72h28.7c23.9,0,43.3,19.4,43.3,43.3"/>
	
		<circle fill="none" stroke="#5E60CE" stroke-width="13" stroke-linecap="round" stroke-linejoin="round" cx="491.8" cy="228.3" r="20.3"/>
	
		<ellipse fill="none" stroke="#5500CC" stroke-width="13" stroke-linecap="round" stroke-linejoin="round" cx="547.7" cy="636" rx="29.5" ry="29.2"/>
	<path fill="none" stroke="#5E60CE" stroke-width="13" stroke-linecap="round" stroke-linejoin="round" d="M911.7,743.5
		c39.8,10.7,80.8-13.5,91.7-54.1s-12.6-82.1-52.4-92.8"/>
	<path fill="none" stroke="#5E60CE" stroke-width="13" stroke-linecap="round" stroke-linejoin="round" d="M859.3,650.8
		c-10.8,40.6,12.6,82.1,52.4,92.8"/>
	<path fill="none" stroke="#4EA8DE" stroke-width="13" stroke-linecap="round" stroke-linejoin="round" d="M437.8,644.9
		c-43.2,0-78.2-38.3-78.2-85.6c0-16.4,4.2-31.8,11.5-44.8 M491.3,473.2H438c-17,0-32.8,5.9-45.7,15.9"/>
	<path fill="none" stroke="#5E60CE" stroke-width="13" stroke-linecap="round" stroke-linejoin="round" d="M332.3,477.7
		c18.7,0,33.8-15,33.8-33.4s-15.1-33.4-33.8-33.4c-18.7,0-33.8,15-33.8,33.4v102.2"/>
	<path fill="none" stroke="#5E60CE" stroke-width="13" stroke-linecap="round" stroke-linejoin="round" d="M935.9,470.6
		c0,17.1,13.7,31,30.5,31s30.5-13.9,30.5-31s-13.6-31-30.5-31H864.2"/>
	<path fill="none" stroke="#4EA8DE" stroke-width="13" stroke-linecap="round" stroke-linejoin="round" d="M668,99.5
		c-18,0-32.5,14.4-32.5,32.1s14.6,32.1,32.5,32.1c18,0,32.5-14.4,32.5-32.1V28.5"/>
	<path fill="none" stroke="#5E60CE" stroke-width="13" stroke-linecap="round" stroke-linejoin="round" d="M657.9,716.6
		c0-16.3,13.1-29.5,29.2-29.5c16.1,0,29.2,13.2,29.2,29.5"/>
	<path fill="none" stroke="#5500CC" stroke-width="13" stroke-linecap="round" stroke-linejoin="round" d="M746.6,314.4
		c16.1,0,29.2,13,29.2,29.1s-13.1,29.1-29.2,29.1s-29.2-13-29.2-29.1V234.9"/>
	<path fill="none" stroke="#4EA8DE" stroke-width="13" stroke-linecap="round" stroke-linejoin="round" d="M542.9,228.8
		c0-28.9-23.1-52.3-51.5-52.3c-28.4,0-51.5,23.4-51.5,52.3s23.1,52.3,51.5,52.3h135"/>
	<path fill="none" stroke="#5E60CE" stroke-width="13" stroke-linecap="round" stroke-linejoin="round" d="M954.5,398
		c28.4,0,51.5-23.4,51.5-52.3s-23.1-52.3-51.5-52.3h-135"/>
	<path fill="none" stroke="#5500CC" stroke-width="13" stroke-linecap="round" stroke-linejoin="round" d="M755.5,117.7
		c0-27.1,21.7-49,48.5-49h49.8c26.8,0,48.5,22,48.5,49l0,0c0,27.1-21.7,49-48.5,49H804C777.2,166.8,755.5,144.8,755.5,117.7
		L755.5,117.7z"/>
	<path fill="none" stroke="#5500CC" stroke-width="13" stroke-linecap="round" stroke-linejoin="round" d="M638.4,510.1
		c-16.7,0-30.2-13.5-30.2-30.2v-86c0-16.7,13.5-30.2,30.2-30.2l0,0c16.7,0,30.2,13.5,30.2,30.2v86
		C668.6,496.6,655.1,510.1,638.4,510.1L638.4,510.1z"/>
	<path fill="none" stroke="#80FFDB" stroke-width="13" stroke-linecap="round" stroke-linejoin="round" d="M657.4,190.1v4
		c0,22.5-18.3,40.8-40.9,40.8l0,0c-22.6,0-40.9-18.3-40.9-40.8V69.9c0-22.5,18.3-40.8,40.9-40.8l0,0c22.6,0,40.9,18.3,40.9,40.8v1.2
		"/>
	<path fill="none" stroke="#80FFDB" stroke-width="13" stroke-linecap="round" stroke-linejoin="round" d="M574.6,363.9v117.7
		c0,35.2,28.8,63.7,64.3,63.7s64.3-28.5,64.3-63.7v-27.8"/>
	<path fill="none" stroke="#5E60CE" stroke-width="13" stroke-linecap="round" stroke-linejoin="round" d="M445.5,563.1h105.6
		c40.2,0,72.8,32.8,72.8,73.2s-32.6,73.2-72.8,73.2"/>
	<path fill="none" stroke="#4EA8DE" stroke-width="13" stroke-linecap="round" stroke-linejoin="round" d="M490.8,384.8h-25
		c-16.8,0-30.4-13.7-30.4-30.5s13.6-30.5,30.4-30.5h50c16.8,0,30.4,13.7,30.4,30.5v2.7c0,15.3-12.4,27.8-27.7,27.8"/>
	<path fill="none" stroke="#5E60CE" stroke-width="13" stroke-linecap="round" stroke-linejoin="round" d="M746.6,268.4h28.5
		c19.2,0,34.7-14.7,34.7-32.8s-15.5-32.8-34.7-32.8H718c-19.2,0-34.7,14.7-34.7,32.8"/>
	<path fill="none" stroke="#56CFE1" stroke-width="13" stroke-linecap="round" stroke-linejoin="round" d="M929.5,641.8
		c16.1,0,29.2,13,29.2,29s-13.1,29-29.2,29c-16.1,0-29.2-13-29.2-29v-189"/>
	<path fill="none" stroke="#5E60CE" stroke-width="13" stroke-linecap="round" stroke-linejoin="round" d="M710.8,660.7
		c0-29.7,23.8-53.9,53.2-53.9h93.7"/>
	<path fill="none" stroke="#4EA8DE" stroke-width="13" stroke-linecap="round" stroke-linejoin="round" d="M572.6,323.8h50
		c33.6,0,60.8-27.3,60.8-61"/>
	<path fill="none" stroke="#4EA8DE" stroke-width="13" stroke-linecap="round" stroke-linejoin="round" d="M864.2,482.8v27.3
		c0,27.6-22.4,49.9-49.9,49.9h-39"/>
	<path fill="none" stroke="#5500CC" stroke-width="13" stroke-linecap="round" stroke-linejoin="round" d="M958.7,346.7H916
		c-30.9,0-55.9,25.3-55.9,56.4"/>
	<path fill="none" stroke="#5E60CE" stroke-width="13" stroke-linecap="round" stroke-linejoin="round" d="M293.8,716v-46.3
		c0-26.7,20.8-49,48.8-54.8"/>
	<path fill="none" stroke="#5E60CE" stroke-width="13" stroke-linecap="round" stroke-linejoin="round" d="M746.1,409.2
		c0,3.9,0,53.1,0,77.2"/>
	<path fill="none" stroke="#5E60CE" stroke-width="13" stroke-linecap="round" stroke-linejoin="round" d="M667.8,619
		c0,1.6,0,21.7,0,31.5"/>
	<path fill="none" stroke="#80FFDB" stroke-width="13" stroke-linecap="round" stroke-linejoin="round" d="M819.5,326.8v72.3
		c0,11.4-9.3,20.6-20.8,20.6S778,429,778,440.4v4.3c0,11.4,9.3,20.6,20.8,20.6s20.8,9.2,20.8,20.6v4.7c0,14-11.4,25.3-25.5,25.3
		h-13.2h-19.4 M677.7,583.4h13.6c28.1,0,50.9-22.8,50.9-50.8"/>
	<path fill="none" stroke="#56CFE1" stroke-width="13" stroke-linecap="round" stroke-linejoin="round" d="M945.5,226.7V237
		c0,14.5-11.8,26.3-26.4,26.3l0,0c-14.6,0-26.4-11.8-26.4-26.3v-8.5c0-14.4-11.7-26.1-26.2-26.1l0,0c-14.5,0-26.2,11.7-26.2,26.1
		V239"/>
	<path fill="none" stroke="#4EA8DE" stroke-width="13" stroke-linecap="round" stroke-linejoin="round" d="M746.3,709v-27
		c0-20.5,16.6-37.1,37.1-37.1l0,0c20.5,0,37.1,16.6,37.1,37.1v27"/>
	
		<ellipse transform="matrix(3.327793e-02 -0.9994 0.9994 3.327793e-02 -522.6152 653.4941)" fill="none" stroke="#5500CC" stroke-width="13" stroke-linecap="round" stroke-linejoin="round" cx="76.5" cy="596.9" rx="20.3" ry="20.3"/>
	<path fill="none" stroke="#5E60CE" stroke-width="13" stroke-linecap="round" stroke-linejoin="round" d="M118.6,606.9
		c0-23.9,19.4-43.3,43.3-43.3h28.7c39.7,0,72-32.3,72-72v-32.7"/>
	<path fill="none" stroke="#5E60CE" stroke-width="13" stroke-linecap="round" stroke-linejoin="round" d="M616.5,62.1
		c0,1.6,0,21.7,0,31.5"/>
</g>
</svg>
