<?xml version="1.0" encoding="utf-8"?>
<!-- Generator: Adobe Illustrator 23.1.1, SVG Export Plug-In . SVG Version: 6.00 Build 0)  -->
<svg version="1.1" id="Layer_1" xmlns="http://www.w3.org/2000/svg" xmlns:xlink="http://www.w3.org/1999/xlink" x="0px" y="0px"
	 viewBox="0 0 1024 768" enable-background="new 0 0 1024 768" xml:space="preserve">
<g id="Thur_1_">
	<defs>
		<rect id="Shape_8_" y="-0.6" width="1024" height="768.6"/>
	</defs>
	<clipPath id="Shape_1_">
		<use xlink:href="#Shape_8_"  overflow="visible"/>
	</clipPath>
	<g id="Patterns_16_" clip-path="url(#Shape_1_)">
		<g id="Thur-">
			<g id="Thur"  opacity="0.1">
				<polygon fill-rule="evenodd" clip-rule="evenodd" fill="#6EDEDE" points="512,640 512,512 640,512 				"/>
				<polygon fill="#00518C" points="640.6,639.4 768.6,639.4 768.6,767.4 640.6,767.4 				"/>
				<path fill-rule="evenodd" clip-rule="evenodd" fill="#FF5766" d="M512,191.4c0,35.3-28.7,64-64,64h-64v-128h64
					C483.3,127.4,512,156,512,191.4z"/>
				<path fill-rule="evenodd" clip-rule="evenodd" fill="#FF5766" d="M576,383.4c35.3,0,64,28.7,64,64v64h-64c-35.3,0-64-28.7-64-64
					S540.7,383.4,576,383.4z"/>

					<linearGradient id="SVGID_1_" gradientUnits="userSpaceOnUse" x1="-287.1936" y1="985.1963" x2="-286.5584" y2="984.5611" gradientTransform="matrix(100 0 0 -100 29264 98935)">
					<stop  offset="0" style="stop-color:#FFC557"/>
					<stop  offset="1" style="stop-color:#FFD066"/>
				</linearGradient>
				<path fill-rule="evenodd" clip-rule="evenodd" fill="url(#SVGID_1_)" d="M576.6,415.4c17.7,0,32,14.3,32,32v32h-32
					c-17.7,0-32-14.3-32-32S559,415.4,576.6,415.4z"/>
				<path fill-rule="evenodd" clip-rule="evenodd" fill="#FF5766" d="M896,575.4c0,35.3,28.7,64,64,64h64v-64c0-35.3-28.7-64-64-64
					S896,540,896,575.4z"/>
				<path fill="#00518C" d="M768,447.4c0,35.3-28.7,64-64,64h-64v-64c0-35.3,28.7-64,64-64S768,412,768,447.4z"/>
				<path fill-rule="evenodd" clip-rule="evenodd" fill="#FF5766" d="M736.6,447.4c0,17.7-14.3,32-32,32h-32v-32
					c0-17.7,14.3-32,32-32C722.3,415.4,736.6,429.7,736.6,447.4z"/>
				<path fill-rule="evenodd" clip-rule="evenodd" fill="#6EDEDE" d="M479.4,191.4c0,17.7-14.3,32-32,32h-32v-32
					c0-17.7,14.3-32,32-32C465,159.4,479.4,173.7,479.4,191.4z"/>
				<path fill-rule="evenodd" clip-rule="evenodd" fill="#6EDEDE" d="M737.3,703.4c0,17.7-14.3,32-32,32h-32v-32
					c0-17.7,14.3-32,32-32C723,671.4,737.3,685.7,737.3,703.4z"/>
				<path fill="#00518C" d="M960,767.4c35.3,0,64-28.7,64-64v-64h-64c-35.3,0-64,28.7-64,64S924.7,767.4,960,767.4z"/>

					<linearGradient id="SVGID_2_" gradientUnits="userSpaceOnUse" x1="-287.0113" y1="984.3729" x2="-286.3762" y2="984.2141" gradientTransform="matrix(400 0 0 -200 115313 197185)">
					<stop  offset="0" style="stop-color:#FFC557"/>
					<stop  offset="1" style="stop-color:#FFD066"/>
				</linearGradient>
				<path fill-rule="evenodd" clip-rule="evenodd" fill="url(#SVGID_2_)" d="M640,255.4c70.7,0,128,57.2,128,127.7v0.3H512V383
					C512,312.5,569.3,255.4,640,255.4z"/>
				<path fill="#00518C" d="M512,511.4c0,70.7-57.3,128-128,128v-256C454.7,383.4,512,440.7,512,511.4z"/>
				<path fill-rule="evenodd" clip-rule="evenodd" fill="#FF5766" d="M896,511.4c70.7,0,128-57.3,128-128H768
					C768,454.1,825.3,511.4,896,511.4z"/>
				<path fill-rule="evenodd" clip-rule="evenodd" fill="#6EDEDE" d="M640.3,255.1c-70.7,0-128-57-128-127.4h256
					C768.3,198,711,255.1,640.3,255.1z"/>
				<polygon fill-rule="evenodd" clip-rule="evenodd" fill="#6EDEDE" points="256,383.4 384,383.4 384,511.4 256,511.4 				"/>
				<polygon fill="#FFD4C4" points="960.6,543.4 992.6,575.4 960.6,607.4 928.6,575.4 				"/>

					<linearGradient id="SVGID_3_" gradientUnits="userSpaceOnUse" x1="-284.0518" y1="981.6981" x2="-283.4167" y2="981.063" gradientTransform="matrix(200 0 0 -200 57313 196985)">
					<stop  offset="0" style="stop-color:#FFC557"/>
					<stop  offset="1" style="stop-color:#FFD066"/>
				</linearGradient>
				<path fill-rule="evenodd" clip-rule="evenodd" fill="url(#SVGID_3_)" d="M640,700c0,35.3-28.7,64-64,64h-64V636h64
					C611.3,636,640,664.7,640,700z"/>
				<path fill-rule="evenodd" clip-rule="evenodd" fill="#FF5766" d="M768,575.4c0,35.3-28.7,64-64,64h-64v-128h64
					C739.3,511.4,768,540,768,575.4z"/>
				<path fill-rule="evenodd" clip-rule="evenodd" fill="#FF5766" d="M832,767.4c35.3,0,64-28.7,64-64v-64H768v64
					C768,738.7,796.7,767.4,832,767.4z"/>
				<path fill-rule="evenodd" clip-rule="evenodd" fill="#FF5766" d="M192,255.4c35.3,0,64,28.7,64,64s-28.7,64-64,64h-64v-64
					C128,284,156.7,255.4,192,255.4z"/>
				<path fill="#00518C" d="M320,255.4c35.3,0,64,28.7,64,64v64h-64c-35.3,0-64-28.7-64-64S284.7,255.4,320,255.4z"/>

					<linearGradient id="SVGID_4_" gradientUnits="userSpaceOnUse" x1="-286.995" y1="983.9119" x2="-286.3598" y2="983.2767" gradientTransform="matrix(-200 0 0 200 -56887 -196015)">
					<stop  offset="0" style="stop-color:#FFC557"/>
					<stop  offset="1" style="stop-color:#FFD066"/>
				</linearGradient>
				<path fill-rule="evenodd" clip-rule="evenodd" fill="url(#SVGID_4_)" d="M448,767.4c-35.3,0-64-28.7-64-64v-64h64
					c35.3,0,64,28.7,64,64S483.3,767.4,448,767.4z"/>

					<linearGradient id="SVGID_5_" gradientUnits="userSpaceOnUse" x1="-286.0097" y1="984.4729" x2="-285.8509" y2="983.8377" gradientTransform="matrix(200 0 0 -400 57513 393785)">
					<stop  offset="0" style="stop-color:#FFC557"/>
					<stop  offset="1" style="stop-color:#FFD066"/>
				</linearGradient>
				<path fill-rule="evenodd" clip-rule="evenodd" fill="url(#SVGID_5_)" d="M256,127.4c0-70.7,57.3-128,128-128v256
					C313.3,255.4,256,198.1,256,127.4z"/>

					<linearGradient id="SVGID_6_" gradientUnits="userSpaceOnUse" x1="-285.925" y1="985.0081" x2="-285.2898" y2="984.373" gradientTransform="matrix(200 0 0 -200 57313 197385)">
					<stop  offset="0" style="stop-color:#FFC557"/>
					<stop  offset="1" style="stop-color:#FFD066"/>
				</linearGradient>
				<polygon fill-rule="evenodd" clip-rule="evenodd" fill="url(#SVGID_6_)" points="128,511.4 128,383.4 256,383.4 				"/>

					<linearGradient id="SVGID_7_" gradientUnits="userSpaceOnUse" x1="-286.2881" y1="986.085" x2="-285.653" y2="985.4498" gradientTransform="matrix(3.700000e-14 200 -200 3.700000e-14 198113 57385)">
					<stop  offset="0" style="stop-color:#FFC557"/>
					<stop  offset="1" style="stop-color:#FFD066"/>
				</linearGradient>
				<polygon fill-rule="evenodd" clip-rule="evenodd" fill="url(#SVGID_7_)" points="1024,127.4 896,127.4 896,255.4 				"/>

					<linearGradient id="SVGID_8_" gradientUnits="userSpaceOnUse" x1="-286.1119" y1="984.075" x2="-285.4767" y2="983.4398" gradientTransform="matrix(-1.200000e-14 -200 200 -1.200000e-14 -195887 -56615)">
					<stop  offset="0" style="stop-color:#FFC557"/>
					<stop  offset="1" style="stop-color:#FFD066"/>
				</linearGradient>
				<polygon fill-rule="evenodd" clip-rule="evenodd" fill="url(#SVGID_8_)" points="896,639.4 896,511.4 768,511.4 				"/>
				<path fill-rule="evenodd" clip-rule="evenodd" fill="#FF5766" d="M256,639.4c-70.7,0-128-57.3-128-128h256
					C384,582.1,326.7,639.4,256,639.4z"/>
				<path fill="#00518C" d="M768,255.4c0-70.7,57.3-128,128-128v256C825.3,383.4,768,326.1,768,255.4z"/>
				<path fill="#FFD4C4" d="M448,255.4c35.3,0,64,28.7,64,64s-28.7,64-64,64h-64v-64C384,284,412.7,255.4,448,255.4z"/>
				<path fill-rule="evenodd" clip-rule="evenodd" fill="#FF5766" d="M608,700c0,17.7-14.3,32-32,32h-32v-32c0-17.7,14.3-32,32-32
					S608,682.3,608,700z"/>

					<linearGradient id="SVGID_9_" gradientUnits="userSpaceOnUse" x1="-286.57" y1="986.17" x2="-285.9348" y2="985.5349" gradientTransform="matrix(100 0 0 -100 29063 99135)">
					<stop  offset="0" style="stop-color:#FFC557"/>
					<stop  offset="1" style="stop-color:#FFD066"/>
				</linearGradient>
				<path fill-rule="evenodd" clip-rule="evenodd" fill="url(#SVGID_9_)" d="M438,518c17.7,0,32,14.3,32,32v32h-32
					c-17.7,0-32-14.3-32-32S420.3,518,438,518z"/>
				<circle fill-rule="evenodd" clip-rule="evenodd" fill="#FF5766" cx="640" cy="319.4" r="32"/>
				<circle fill-rule="evenodd" clip-rule="evenodd" fill="#6EDEDE" cx="960" cy="703.4" r="32"/>
				<circle fill-rule="evenodd" clip-rule="evenodd" fill="#6EDEDE" cx="192" cy="319.4" r="32"/>

					<linearGradient id="SVGID_10_" gradientUnits="userSpaceOnUse" x1="-286.4664" y1="984.4763" x2="-285.8312" y2="983.8411" gradientTransform="matrix(100 0 0 -100 29062 98735)">
					<stop  offset="0" style="stop-color:#FFC557"/>
					<stop  offset="1" style="stop-color:#FFD066"/>
				</linearGradient>
				<polygon fill-rule="evenodd" clip-rule="evenodd" fill="url(#SVGID_10_)" points="447.4,287.4 479.4,319.4 447.4,351.4
					415.4,319.4 				"/>
			</g>
		</g>
	</g>
</g>
</svg>
